<?xml version="1.0" encoding="UTF-8"?>
<svg version="1.1" xmlns="http://www.w3.org/2000/svg" width="586" height="329">
<path d="M0 0 C-0.13565505 5.5741895 -0.92868943 10.29672851 -3.1953125 15.4140625 C-5.98481499 21.89882129 -8.47835178 28.47702757 -10.93341064 35.09344482 C-12.2430405 38.62165444 -13.56105639 42.1467291 -14.87890625 45.671875 C-15.14362732 46.38028534 -15.40834839 47.08869568 -15.68109131 47.818573 C-18.1254027 54.35164832 -20.61529011 60.86676927 -23.125 67.375 C-23.53226318 68.43114502 -23.93952637 69.48729004 -24.35913086 70.57543945 C-25.57181708 73.71732242 -26.78577083 76.85871306 -28 80 C-36.09769899 100.96329627 -44.06290958 121.97548351 -52 143 C-57.14436978 142.28837406 -59.83290309 141.03157591 -64 137.875 C-65.22460956 136.96611274 -66.45132401 136.06005737 -67.6796875 135.15625 C-68.35741211 134.65609375 -69.03513672 134.1559375 -69.73339844 133.640625 C-74.13141812 130.45722428 -78.63365174 127.42455461 -83.125 124.375 C-84.08575439 123.72144531 -85.04650879 123.06789063 -86.03637695 122.39453125 C-90.73920451 119.19963815 -95.45082037 116.01946243 -100.1875 112.875 C-130.42435169 92.77561237 -130.42435169 92.77561237 -135 88 C-135 87.01 -135 86.02 -135 85 C-132.66963208 83.3984344 -130.39793508 81.99783466 -127.9375 80.625 C-123.28912549 77.97921274 -118.85082303 75.24584884 -114.5300293 72.08935547 C-112.737454 70.8130716 -110.890991 69.76084134 -108.9375 68.75 C-103.08528988 65.57224003 -97.54813748 61.91625652 -91.97265625 58.28417969 C-89.20606964 56.48315919 -86.43384324 54.69090067 -83.66186523 52.89819336 C-82.2262374 51.96969639 -80.79085127 51.04082559 -79.35571289 50.11157227 C-72.58079203 45.72497191 -65.79233116 41.35957863 -59 37 C-59.84820312 37.4846875 -60.69640625 37.969375 -61.5703125 38.46875 C-62.12992676 38.78851807 -62.68954102 39.10828613 -63.26611328 39.43774414 C-64.52233811 40.15561047 -65.77852194 40.87354853 -67.03466797 41.59155273 C-70.23051179 43.4181462 -73.42688307 45.2437952 -76.625 47.06640625 C-86.73774233 52.83187695 -96.80496555 58.66632236 -106.77734375 64.671875 C-109.17693554 66.10572598 -111.59859455 67.49802522 -114.03125 68.875 C-117.70081427 70.97189387 -121.33904126 73.12306189 -124.984375 75.26171875 C-128.36644215 77.21122637 -131.79479849 79.05810031 -135.2578125 80.859375 C-137.31024278 82.04038757 -137.31024278 82.04038757 -139 85 C-139.45720464 92.20097313 -138.33900553 98.93435473 -137 106 C-136.97421875 105.15695313 -136.9484375 104.31390625 -136.921875 103.4453125 C-136.83679688 101.80175781 -136.83679688 101.80175781 -136.75 100.125 C-136.70359375 99.03445312 -136.6571875 97.94390625 -136.609375 96.8203125 C-136 94 -136 94 -133.953125 92.6171875 C-132.98632812 92.31167969 -132.98632812 92.31167969 -132 92 C-130.96552734 92.76183594 -130.96552734 92.76183594 -129.91015625 93.5390625 C-123.462057 98.26236154 -116.99794492 102.99071106 -110.14453125 107.1171875 C-106.13122302 109.57664955 -106.13122302 109.57664955 -105.34375 112.1171875 C-105.17359375 113.04917969 -105.17359375 113.04917969 -105 114 C-113.10489158 120.82159244 -121.23628521 127.6282085 -129.75 133.9375 C-130.30896973 134.36788574 -130.86793945 134.79827148 -131.44384766 135.24169922 C-134.13927682 137.1932786 -135.51586512 138.04121689 -138.890625 137.75390625 C-139.58671875 137.50511719 -140.2828125 137.25632813 -141 137 C-141.31453125 135.96101562 -141.6290625 134.92203125 -141.953125 133.8515625 C-144.09706346 126.84230629 -146.32460155 119.99337799 -149.16796875 113.23046875 C-150.01836475 110.95076866 -150.53419179 108.76074812 -151 106.375 C-151.77418165 102.49038944 -153.11741683 99.32603585 -155 95.8515625 C-155.90454342 94.17674382 -156.67973977 92.43364314 -157.4375 90.6875 C-159.30027522 87.48352663 -160.71230409 86.65078402 -164 85 C-166.94363898 84.32882152 -166.94363898 84.32882152 -170 84 C-174.50685648 83.44814002 -177.14920465 82.33630572 -181 80 C-183.31401469 79.30688711 -185.65079621 78.68741531 -188 78.125 C-195.26157966 76.317048 -202.07324278 73.85013282 -209 71 C-208.67 69.02 -208.34 67.04 -208 65 C-207.07445312 64.91363281 -206.14890625 64.82726562 -205.1953125 64.73828125 C-199.86048478 63.97329214 -194.92118498 62.01674205 -189.875 60.1875 C-181.64366562 57.23109756 -173.37635699 54.51739672 -165 52 C-150.57095166 47.64514415 -136.22285519 43.11505045 -121.9375 38.3125 C-108.60212781 33.82959256 -95.22824556 29.48641303 -81.8125 25.25 C-80.50709763 24.83773666 -80.50709763 24.83773666 -79.17532349 24.41714478 C-75.7770807 23.34438136 -72.37862184 22.2723072 -68.97981262 21.20133972 C-43.10825736 13.16359672 -43.10825736 13.16359672 -17.4921875 4.36328125 C-16.33976562 3.9458667 -16.33976562 3.9458667 -15.1640625 3.52001953 C-13.67961127 2.98013273 -12.19764678 2.43333916 -10.71875 1.87841797 C-7.02651547 0.53538534 -3.94034539 -0.32963979 0 0 Z " fill="#1690D5" transform="translate(404,21)"/>
<path d="M0 0 C-0.0625 2.25 -0.0625 2.25 -1 5 C-3.65742095 7.0898813 -6.53550551 9 -10 9 C-10 9.66 -10 10.32 -10 11 C-11.57421875 12.18359375 -11.57421875 12.18359375 -13.6875 13.4375 C-14.41582031 13.87320313 -15.14414062 14.30890625 -15.89453125 14.7578125 C-16.58933594 15.16773438 -17.28414062 15.57765625 -18 16 C-18.94875 16.598125 -19.8975 17.19625 -20.875 17.8125 C-23 19 -23 19 -25 19 C-25 19.66 -25 20.32 -25 21 C-25.84304688 21.39832031 -26.68609375 21.79664062 -27.5546875 22.20703125 C-28.65039062 22.73683594 -29.74609375 23.26664063 -30.875 23.8125 C-31.96554687 24.33457031 -33.05609375 24.85664062 -34.1796875 25.39453125 C-37.22221402 26.84724897 -37.22221402 26.84724897 -39 30 C-40.92578125 30.88671875 -40.92578125 30.88671875 -43.3125 31.6875 C-48.84949959 33.77678392 -53.58687914 36.69662498 -58.57421875 39.85546875 C-62.01224261 42.03002131 -65.52253733 44.05931826 -69.0625 46.0625 C-78.03641406 51.1518496 -86.93961788 56.34963121 -95.77734375 61.671875 C-98.17693554 63.10572598 -100.59859455 64.49802522 -103.03125 65.875 C-106.70081427 67.97189387 -110.33904126 70.12306189 -113.984375 72.26171875 C-117.36644215 74.21122637 -120.79479849 76.05810031 -124.2578125 77.859375 C-126.31024278 79.04038757 -126.31024278 79.04038757 -128 82 C-128.45720464 89.20097313 -127.33900553 95.93435473 -126 103 C-125.97421875 102.15695313 -125.9484375 101.31390625 -125.921875 100.4453125 C-125.83679688 98.80175781 -125.83679688 98.80175781 -125.75 97.125 C-125.70359375 96.03445312 -125.6571875 94.94390625 -125.609375 93.8203125 C-125 91 -125 91 -122.953125 89.6171875 C-121.98632812 89.31167969 -121.98632812 89.31167969 -121 89 C-119.96552734 89.76183594 -119.96552734 89.76183594 -118.91015625 90.5390625 C-112.462057 95.26236154 -105.99794492 99.99071106 -99.14453125 104.1171875 C-95.13122302 106.57664955 -95.13122302 106.57664955 -94.34375 109.1171875 C-94.17359375 110.04917969 -94.17359375 110.04917969 -94 111 C-102.10489158 117.82159244 -110.23628521 124.6282085 -118.75 130.9375 C-119.30896973 131.36788574 -119.86793945 131.79827148 -120.44384766 132.24169922 C-123.13927682 134.1932786 -124.51586512 135.04121689 -127.890625 134.75390625 C-128.58671875 134.50511719 -129.2828125 134.25632813 -130 134 C-130.31453125 132.96101562 -130.6290625 131.92203125 -130.953125 130.8515625 C-133.09706346 123.84230629 -135.32460155 116.99337799 -138.16796875 110.23046875 C-139.01836475 107.95076866 -139.53419179 105.76074812 -140 103.375 C-140.77418165 99.49038944 -142.11741683 96.32603585 -144 92.8515625 C-144.90454342 91.17674382 -145.67973977 89.43364314 -146.4375 87.6875 C-148.30027522 84.48352663 -149.71230409 83.65078402 -153 82 C-155.94363898 81.32882152 -155.94363898 81.32882152 -159 81 C-163.50685648 80.44814002 -166.14920465 79.33630572 -170 77 C-172.31401469 76.30688711 -174.65079621 75.68741531 -177 75.125 C-184.26157966 73.317048 -191.07324278 70.85013282 -198 68 C-197.67 66.02 -197.34 64.04 -197 62 C-196.07445312 61.91363281 -195.14890625 61.82726562 -194.1953125 61.73828125 C-188.86048478 60.97329214 -183.92118498 59.01674205 -178.875 57.1875 C-170.64366562 54.23109756 -162.37635699 51.51739672 -154 49 C-139.57095166 44.64514415 -125.22285519 40.11505045 -110.9375 35.3125 C-97.60212781 30.82959256 -84.22824556 26.48641303 -70.8125 22.25 C-69.50709763 21.83773666 -69.50709763 21.83773666 -68.17532349 21.41714478 C-64.7770807 20.34438136 -61.37862184 19.2723072 -57.97981262 18.20133972 C-31.9248702 10.24838419 -31.9248702 10.24838419 -6.25 1.1875 C-3 0 -3 0 0 0 Z " fill="#043E5D" transform="translate(393,24)"/>
<path d="M0 0 C8.65458854 7.04293332 12.71452949 15.76002213 14.0703125 26.7734375 C14.44867208 35.96922024 10.76580802 44.89558468 7.78515625 53.45703125 C10.65359755 55.55935469 10.65359755 55.55935469 13.78515625 56.45703125 C13.29015625 57.44703125 13.29015625 57.44703125 12.78515625 58.45703125 C13.11515625 59.11703125 13.44515625 59.77703125 13.78515625 60.45703125 C13.78515625 61.44703125 13.78515625 62.43703125 13.78515625 63.45703125 C11.4929019 63.34331628 9.20133237 63.21572161 6.91015625 63.08203125 C5.63398437 63.01242187 4.3578125 62.9428125 3.04296875 62.87109375 C-0.21484375 62.45703125 -0.21484375 62.45703125 -2.21484375 60.45703125 C-5.08630974 60.78519879 -7.60305282 61.58902233 -10.33984375 62.51953125 C-21.00641605 65.10015358 -28.98607472 62.87674758 -38.40234375 57.70703125 C-47.00009379 50.82883122 -51.72657873 42.94060965 -53.08984375 31.95703125 C-53.66356692 22.03581842 -50.83057288 14.15875795 -45.58984375 5.89453125 C-33.32187382 -6.69628 -14.96106149 -10.42260897 0 0 Z M-28.21484375 9.45703125 C-28.54484375 10.11703125 -28.87484375 10.77703125 -29.21484375 11.45703125 C-30.20484375 11.78703125 -31.19484375 12.11703125 -32.21484375 12.45703125 C-33.44454253 15.96893934 -33.44454253 15.96893934 -34.21484375 19.45703125 C-34.87484375 19.45703125 -35.53484375 19.45703125 -36.21484375 19.45703125 C-38.61835371 25.96064642 -39.08164813 32.25491947 -36.203125 38.734375 C-33.41841049 43.45169894 -30.18298346 46.9729614 -25.21484375 49.45703125 C-23.38447088 49.57849118 -21.54920242 49.6324631 -19.71484375 49.64453125 C-18.73515625 49.65871094 -17.75546875 49.67289062 -16.74609375 49.6875 C-14.04492575 49.71383159 -14.04492575 49.71383159 -12.21484375 47.45703125 C-12.78074219 46.90273438 -13.34664062 46.3484375 -13.9296875 45.77734375 C-14.66316406 45.05289063 -15.39664063 44.3284375 -16.15234375 43.58203125 C-16.88324219 42.86273438 -17.61414063 42.1434375 -18.3671875 41.40234375 C-20.21484375 39.45703125 -20.21484375 39.45703125 -21.21484375 37.45703125 C-18.94459407 37.37605801 -16.673523 37.31785421 -14.40234375 37.26953125 C-13.13777344 37.23472656 -11.87320313 37.19992188 -10.5703125 37.1640625 C-7.21484375 37.45703125 -7.21484375 37.45703125 -5.265625 38.96875 C-4.91886719 39.45988281 -4.57210937 39.95101562 -4.21484375 40.45703125 C-0.85768339 34.02247388 0.04721678 28.12966011 -1.87109375 21.02734375 C-3.99975054 15.57724835 -6.96835547 11.24453925 -12.21484375 8.45703125 C-17.79569284 6.97116335 -22.93495459 6.88477756 -28.21484375 9.45703125 Z M5.78515625 50.45703125 C6.78515625 52.45703125 6.78515625 52.45703125 6.78515625 52.45703125 Z " fill="#114360" transform="translate(91.21484375,209.54296875)"/>
<path d="M0 0 C38.14979757 0 38.14979757 0 45.33984375 5.9296875 C50.68760234 12.44113928 52.54454705 17.63767611 52.3828125 26.1171875 C51.38161237 33.65683743 47.38063805 38.88161154 42 44 C42.39380859 44.62044189 42.78761719 45.24088379 43.19335938 45.88012695 C44.96922304 48.68656949 46.73470214 51.4994006 48.5 54.3125 C49.43005859 55.77719727 49.43005859 55.77719727 50.37890625 57.27148438 C50.96542969 58.20927734 51.55195313 59.14707031 52.15625 60.11328125 C52.70087891 60.97735596 53.24550781 61.84143066 53.80664062 62.73168945 C55 65 55 65 55 68 C49.68435909 68.94969267 44.1957961 69.88267966 39 68 C33.47907469 63.13591016 30.68424036 55.55561854 27.59375 49.03125 C26.12919945 46.74316637 26.12919945 46.74316637 23.30078125 46.29296875 C22.31464844 46.25816406 21.32851563 46.22335938 20.3125 46.1875 C18.559375 46.125625 16.80625 46.06375 15 46 C15 53.26 15 60.52 15 68 C10.05 68 5.1 68 0 68 C0 45.56 0 23.12 0 0 Z M15 13 C15 19.6 15 26.2 15 33 C19.08375 33.12375 19.08375 33.12375 23.25 33.25 C24.10110352 33.28641602 24.95220703 33.32283203 25.82910156 33.36035156 C30.50012352 33.43350858 30.50012352 33.43350858 34.484375 31.109375 C37.27840585 27.22077536 37.66725007 23.70681806 37 19 C34.8755173 15.55687286 33.85147359 14.28382453 30 13 C27.42502932 12.92964561 24.88550071 12.9065066 22.3125 12.9375 C19.899375 12.958125 17.48625 12.97875 15 13 Z " fill="#586F7E" transform="translate(299,204)"/>
<path d="M0 0 C1.093125 0.00257813 2.18625 0.00515625 3.3125 0.0078125 C4.405625 0.00523437 5.49875 0.00265625 6.625 0 C9.3125 0.1328125 9.3125 0.1328125 10.3125 1.1328125 C10.47260481 3.86982428 10.57196828 6.5844884 10.62890625 9.32421875 C10.64968735 10.14405746 10.67046844 10.96389618 10.69187927 11.80857849 C10.75746494 14.43740151 10.81630126 17.06632754 10.875 19.6953125 C10.91817667 21.47331811 10.96179067 23.25131315 11.00585938 25.02929688 C11.11315543 29.39702884 11.21439704 33.76486477 11.3125 38.1328125 C16.41077812 33.19823221 20.82311712 28.05917898 25.1015625 22.390625 C28.1886036 19.23813426 30.4703067 19.26245949 34.69921875 18.96484375 C35.45847656 18.95839844 36.21773438 18.95195312 37 18.9453125 C37.76699219 18.93113281 38.53398437 18.91695312 39.32421875 18.90234375 C41.3125 19.1328125 41.3125 19.1328125 43.3125 21.1328125 C35.0043086 31.61294226 35.0043086 31.61294226 30.5390625 36.46484375 C28.9319722 38.65028183 28.06288742 40.51649354 27.3125 43.1328125 C28.15349764 45.44871967 28.15349764 45.44871967 29.8203125 47.56640625 C30.39523437 48.38044922 30.97015625 49.19449219 31.5625 50.03320312 C32.18125 50.87044922 32.8 51.70769531 33.4375 52.5703125 C34.03304687 53.40369141 34.62859375 54.23707031 35.2421875 55.09570312 C37.36480152 58.06595394 39.49384423 61.03077589 41.67089844 63.96142578 C42.8046875 65.54296875 42.8046875 65.54296875 44.3125 68.1328125 C43.8175 69.6178125 43.8175 69.6178125 43.3125 71.1328125 C38.47685545 71.96654432 33.78783035 72.37761624 29.3125 70.1328125 C23.85215587 64.74809641 20.04582733 57.77640832 16.3125 51.1328125 C13.69249614 52.59149726 13.69249614 52.59149726 11.3125 55.1328125 C10.77966168 58.06489517 10.52329655 60.45262471 10.5 63.3828125 C10.47486328 64.12789063 10.44972656 64.87296875 10.42382812 65.640625 C10.36516898 67.47079043 10.3359192 69.30185703 10.3125 71.1328125 C3.3825 70.6378125 3.3825 70.6378125 -3.6875 70.1328125 C-4.5143651 65.998487 -4.78782356 62.85653683 -4.72509766 58.70605469 C-4.70822906 57.42833191 -4.69136047 56.15060913 -4.67398071 54.83416748 C-4.65010272 53.44933629 -4.62595703 52.06450969 -4.6015625 50.6796875 C-4.57977979 49.25433848 -4.55833084 47.82898433 -4.53720093 46.40362549 C-4.4918177 43.424615 -4.44260018 40.44569943 -4.390625 37.46679688 C-4.32415848 33.6411431 -4.26698194 29.81541677 -4.21259499 25.98957443 C-4.16985709 23.05053559 -4.12241102 20.11158756 -4.07349777 17.17264557 C-4.05054956 15.76120492 -4.02904628 14.34974003 -4.00899124 12.93825531 C-3.98032819 10.97275891 -3.94469091 9.0073679 -3.90869141 7.04199219 C-3.89013092 5.9223407 -3.87157043 4.80268921 -3.85244751 3.64910889 C-3.62391323 0.16278782 -3.50935216 0.17342729 0 0 Z " fill="#104360" transform="translate(249.6875,201.8671875)"/>
<path d="M0 0 C5.9742187 4.43031949 9.19126819 9.3892354 11.0859375 16.546875 C11.0859375 20.176875 11.0859375 23.806875 11.0859375 27.546875 C-1.1240625 27.876875 -13.3340625 28.206875 -25.9140625 28.546875 C-24.4290625 31.021875 -24.4290625 31.021875 -22.9140625 33.546875 C-22.9140625 34.206875 -22.9140625 34.866875 -22.9140625 35.546875 C-17.85712913 37.23251946 -12.77428634 37.41761808 -7.9765625 35.171875 C-5.81703844 33.70765774 -5.81703844 33.70765774 -4.9140625 31.546875 C-0.20002462 32.02626868 3.75173051 32.51521548 8.0859375 34.546875 C7.50254896 38.48474761 5.84322145 40.71889147 3.0859375 43.546875 C-5.31922853 48.63064478 -13.25652913 49.27270214 -22.9140625 48.546875 C-26.00777075 47.6764739 -28.32959217 46.43434021 -30.9140625 44.546875 C-31.9865625 43.78375 -33.0590625 43.020625 -34.1640625 42.234375 C-40.0412553 36.49075476 -42.0354957 30.5165076 -42.2890625 22.421875 C-42.2130604 14.89766725 -40.30177115 9.34497116 -35.26953125 3.703125 C-25.60233943 -5.2002932 -11.4694073 -6.78257309 0 0 Z M-24.9140625 11.546875 C-25.5740625 13.526875 -26.2340625 15.506875 -26.9140625 17.546875 C-19.3240625 17.546875 -11.7340625 17.546875 -3.9140625 17.546875 C-4.877268 12.7308475 -5.31374291 11.3733462 -9.10546875 8.5 C-14.86576922 5.4643341 -20.29939501 7.37169965 -24.9140625 11.546875 Z " fill="#596F7E" transform="translate(548.9140625,224.453125)"/>
<path d="M0 0 C7.14388401 4.23648935 10.99133 10.40210175 13.02734375 18.36328125 C14.3656141 26.9664478 12.49424973 34.90564105 7.4375 42 C0.82480878 48.45238356 -5.58151017 50.45061469 -14.75170898 50.43383789 C-21.88242466 50.224698 -27.11398109 48.08899247 -32.3984375 43.35546875 C-37.59553063 37.74007301 -40.78533426 30.74676758 -40.5625 23 C-39.51756914 16.44543367 -38.16962732 9.96152173 -33.5625 5 C-23.53248236 -1.97812082 -11.70990677 -5.31943936 0 0 Z M-23 14.9375 C-25.51274557 19.86248132 -25.49687842 24.60057663 -24.5625 30 C-23.07931447 33.08691263 -21.38795356 35.06875592 -18.5625 37 C-14.5388185 38.2933262 -12.41002383 38.24927171 -8.375 37.0625 C-4.5970579 34.29200912 -3.00484074 31.41665921 -1.5625 27 C-0.92979724 21.75760569 -1.72977036 18.45143229 -4.5625 14 C-10.67706873 8.08925023 -16.7483004 9.96820032 -23 14.9375 Z " fill="#586E7C" transform="translate(396.5625,223)"/>
<path d="M0 0 C-0.01571045 1.40693115 -0.01571045 1.40693115 -0.03173828 2.84228516 C-0.06594612 6.34231045 -0.09096002 9.8421565 -0.10986328 13.34228516 C-0.11988339 14.85338149 -0.13350321 16.36445862 -0.15087891 17.87548828 C-0.17530392 20.05506142 -0.18652307 22.23437684 -0.1953125 24.4140625 C-0.20578613 25.7232666 -0.21625977 27.0324707 -0.22705078 28.38134766 C-0.0002745 31.9956251 0.53475317 34.69512877 2 38 C4.78934297 40.27343051 4.78934297 40.27343051 7.8125 39.9375 C11.67464617 38.80157466 14.44432436 37.08817423 17 34 C17.91114641 30.4447734 17.91114641 30.4447734 17.8046875 26.51171875 C17.81839386 25.80852005 17.83210022 25.10532135 17.84622192 24.3808136 C17.88342079 22.14905221 17.87981507 19.91952651 17.875 17.6875 C17.89313436 16.16858517 17.9139394 14.64969973 17.9375 13.13085938 C17.98925122 9.42041099 18.00443768 5.71085513 18 2 C20.88415883 0.55792059 23.41721528 0.90605113 26.625 0.9375 C27.81351563 0.94652344 29.00203125 0.95554688 30.2265625 0.96484375 C31.14179688 0.97644531 32.05703125 0.98804688 33 1 C32.98839844 2.15113281 32.97679687 3.30226562 32.96484375 4.48828125 C32.90416375 13.16735968 32.9785187 21.82876036 33.375 30.5 C33.40585693 31.30606689 33.43671387 32.11213379 33.46850586 32.94262695 C33.66484846 36.74824462 33.84405184 38.76607775 36 42 C36.44921875 44.19140625 36.44921875 44.19140625 36.6875 46.5625 C36.77386719 47.34753906 36.86023438 48.13257813 36.94921875 48.94140625 C37 51 37 51 36 53 C27.00593783 53.62871114 27.00593783 53.62871114 23 51.125 C22.34 50.42375 21.68 49.7225 21 49 C20.34 48.34 19.68 47.68 19 47 C18.278125 47.61875 17.55625 48.2375 16.8125 48.875 C10.37293829 53.74044662 3.83796853 53.78971975 -4 53 C-8.96029156 50.73741087 -11.34763619 47.71531343 -14 43 C-15.26051768 38.88993963 -15.14379426 34.81249631 -15.1328125 30.55078125 C-15.13424759 29.33094795 -15.13424759 29.33094795 -15.13571167 28.08647156 C-15.13639076 26.3726697 -15.1345554 24.65886524 -15.13037109 22.94506836 C-15.12499822 20.31162816 -15.13033586 17.67835692 -15.13671875 15.04492188 C-15.13605833 13.38020796 -15.13477791 11.71549414 -15.1328125 10.05078125 C-15.13483673 9.25916092 -15.13686096 8.46754059 -15.13894653 7.65193176 C-15.11496487 2.11496487 -15.11496487 2.11496487 -14 1 C-12.40220971 0.76426045 -10.79576005 0.5858461 -9.1875 0.4375 C-8.31480469 0.35371094 -7.44210938 0.26992187 -6.54296875 0.18359375 C-4.36678488 0.02648063 -2.18184801 0 0 0 Z " fill="#11425E" transform="translate(126,220)"/>
<path d="M0 0 C1.79244141 0.01740234 1.79244141 0.01740234 3.62109375 0.03515625 C5.41740234 0.04869141 5.41740234 0.04869141 7.25 0.0625 C8.17683594 0.07410156 9.10367187 0.08570313 10.05859375 0.09765625 C10.07317627 1.00008057 10.08775879 1.90250488 10.1027832 2.83227539 C10.16414952 6.20785632 10.23835704 9.58266321 10.32104492 12.95776367 C10.35412358 14.41338619 10.38220772 15.86913172 10.4050293 17.32495117 C10.43889296 19.42810061 10.49121735 21.53014 10.546875 23.6328125 C10.57305908 24.89488525 10.59924316 26.15695801 10.6262207 27.45727539 C11.12534576 31.65967726 12.11451598 34.35578483 14.05859375 38.09765625 C16.34616942 39.43872986 16.34616942 39.43872986 19.05859375 39.09765625 C23.23679151 37.5099411 25.81636251 35.97189124 28.05859375 32.09765625 C28.54730294 28.72825609 28.54730294 28.72825609 28.53515625 24.9609375 C28.55073578 24.28089157 28.56631531 23.60084564 28.58236694 22.90019226 C28.62975023 20.73685779 28.65761506 18.57384457 28.68359375 16.41015625 C28.72006596 14.23598064 28.76062287 12.06198801 28.8062439 9.88798523 C28.84589373 7.92327306 28.87366286 5.95833194 28.90087891 3.9934082 C29.05859375 1.09765625 29.05859375 1.09765625 30.05859375 0.09765625 C32.24498828 0.02506679 34.43359764 0.01391842 36.62109375 0.03515625 C38.41740234 0.04869141 38.41740234 0.04869141 40.25 0.0625 C41.17683594 0.07410156 42.10367188 0.08570313 43.05859375 0.09765625 C44.2940155 3.96013855 44.24624292 7.84216152 44.3046875 11.85546875 C44.33759963 13.3828188 44.37081168 14.91016241 44.40429688 16.4375 C44.45186018 18.83833772 44.49636184 21.23914457 44.53540039 23.64013672 C44.57499405 25.96217469 44.62653578 28.28370721 44.6796875 30.60546875 C44.68810165 31.32630646 44.69651581 32.04714417 44.70518494 32.78982544 C44.69020107 36.89564724 44.69020107 36.89564724 47.05859375 40.09765625 C47.32421875 42.41015625 47.32421875 42.41015625 47.30859375 45.09765625 C47.31632812 46.42796875 47.31632812 46.42796875 47.32421875 47.78515625 C47.05859375 50.09765625 47.05859375 50.09765625 45.05859375 52.09765625 C38.1070268 52.78141693 38.1070268 52.78141693 34.18359375 50.22265625 C32.80859375 48.84765625 31.43359375 47.47265625 30.05859375 46.09765625 C29.33671875 46.71640625 28.61484375 47.33515625 27.87109375 47.97265625 C23.17792956 51.51860253 19.41447999 52.38963328 13.55859375 52.41015625 C12.45515625 52.42691406 11.35171875 52.44367188 10.21484375 52.4609375 C4.97862397 51.85825379 1.37337059 49.09824898 -1.94140625 45.09765625 C-4.08305824 40.06398898 -4.22025185 35.60088291 -4.171875 30.234375 C-4.17141678 29.40178665 -4.17095856 28.5691983 -4.17048645 27.71138 C-4.16747912 25.96243859 -4.15963865 24.21349949 -4.1472168 22.46459961 C-4.12884665 19.77643456 -4.1267081 17.08861218 -4.12695312 14.40039062 C-4.12204167 12.69921575 -4.11621498 10.99804321 -4.109375 9.296875 C-4.10826218 8.489655 -4.10714935 7.682435 -4.10600281 6.85075378 C-4.04820351 0.13440251 -4.04820351 0.13440251 0 0 Z " fill="#566B7A" transform="translate(419.94140625,220.90234375)"/>
<path d="M0 0 C2.82994357 2.33592325 4.82355018 4.38007237 6.8125 7.49609375 C6.4296875 9.6796875 6.4296875 9.6796875 5.8125 11.49609375 C3.90476593 12.10800845 1.98572735 12.68476902 0.0625 13.24609375 C-1.53851563 13.73335937 -1.53851563 13.73335937 -3.171875 14.23046875 C-4.16703125 14.318125 -5.1621875 14.40578125 -6.1875 14.49609375 C-8.40234375 12.6328125 -8.40234375 12.6328125 -10.1875 10.49609375 C-14.05715504 9.20620874 -15.94629467 9.42250568 -19.875 10.62109375 C-23.56504443 12.70979814 -24.75495738 13.53553476 -26.1875 17.49609375 C-26.86616147 22.56908823 -26.74147068 26.34711752 -24.5 30.99609375 C-22.00753022 33.69065568 -20.76231481 34.7478767 -17.1875 35.49609375 C-13.60993314 35.4969191 -13.60993314 35.4969191 -10.1875 34.49609375 C-9.589375 33.77421875 -8.99125 33.05234375 -8.375 32.30859375 C-6.1875 30.49609375 -6.1875 30.49609375 -3.828125 30.64453125 C-0.18534591 31.37098142 3.28922619 32.32166915 6.8125 33.49609375 C6.8125 36.80915947 6.36007211 38.87815607 4.140625 41.3828125 C-3.16362359 47.9319226 -8.8557793 48.97816088 -18.5859375 48.74609375 C-23.04896959 48.43629543 -25.3798507 47.79654854 -29.1875 45.49609375 C-30.07308594 45.00302734 -30.07308594 45.00302734 -30.9765625 44.5 C-37.0338134 40.77543508 -39.98034346 35.11756337 -42.1875 28.49609375 C-43.0475944 19.7354179 -42.39734412 12.7583007 -37.1875 5.49609375 C-28.22715649 -4.76915415 -11.5597783 -7.72841238 0 0 Z " fill="#124460" transform="translate(232.1875,224.50390625)"/>
<path d="M0 0 C1.093125 0.00257813 2.18625 0.00515625 3.3125 0.0078125 C4.405625 0.00523437 5.49875 0.00265625 6.625 0 C9.3125 0.1328125 9.3125 0.1328125 10.3125 1.1328125 C10.38563567 3.66330652 10.40497527 6.16586087 10.375 8.6953125 C10.37048828 9.40623047 10.36597656 10.11714844 10.36132812 10.84960938 C10.34950864 12.61071263 10.33157263 14.37177286 10.3125 16.1328125 C13.6125 16.1328125 16.9125 16.1328125 20.3125 16.1328125 C20.3125 20.0928125 20.3125 24.0528125 20.3125 28.1328125 C17.0125 28.1328125 13.7125 28.1328125 10.3125 28.1328125 C10.6425 36.7128125 10.9725 45.2928125 11.3125 54.1328125 C16.2625 53.6378125 16.2625 53.6378125 21.3125 53.1328125 C24.3125 60.6328125 24.3125 60.6328125 24.3125 65.1328125 C17.65481662 68.20558944 11.62776087 69.06776859 4.3125 68.1328125 C1.15235653 66.9477587 -0.90541355 65.28829734 -2.82373047 62.45410156 C-4.04846992 59.16274411 -3.91063255 56.24751346 -3.8828125 52.7421875 C-3.87856766 51.68526703 -3.87856766 51.68526703 -3.87423706 50.60699463 C-3.86307801 48.3654249 -3.83798193 46.12426064 -3.8125 43.8828125 C-3.80246464 42.35938079 -3.79333976 40.83594279 -3.78515625 39.3125 C-3.76315291 35.58580664 -3.72865272 31.85934917 -3.6875 28.1328125 C-4.656875 28.1534375 -5.62625 28.1740625 -6.625 28.1953125 C-9.6875 28.1328125 -9.6875 28.1328125 -10.6875 27.1328125 C-10.75955511 25.44672284 -10.77136068 23.75780591 -10.75 22.0703125 C-10.74097656 21.15121094 -10.73195313 20.23210937 -10.72265625 19.28515625 C-10.71105469 18.57488281 -10.69945312 17.86460937 -10.6875 17.1328125 C-7.2225 16.6378125 -7.2225 16.6378125 -3.6875 16.1328125 C-3.69910156 15.06160156 -3.71070313 13.99039063 -3.72265625 12.88671875 C-3.73203299 11.48958507 -3.74113331 10.09244951 -3.75 8.6953125 C-3.76256836 7.63473633 -3.76256836 7.63473633 -3.77539062 6.55273438 C-3.78403588 4.74587691 -3.73970011 2.93893647 -3.6875 1.1328125 C-2.6875 0.1328125 -2.6875 0.1328125 0 0 Z " fill="#596F7E" transform="translate(480.6875,204.8671875)"/>
<path d="M0 0 C0.24050903 2.10073853 0.24050903 2.10073853 0.22705078 4.72509766 C0.22689972 5.70596344 0.22674866 6.68682922 0.22659302 7.69741821 C0.21627045 8.75891083 0.20594788 9.82040344 0.1953125 10.9140625 C0.1924826 11.99883881 0.18965271 13.08361511 0.18673706 14.20126343 C0.17551578 17.67595313 0.15040762 21.15038782 0.125 24.625 C0.11497272 26.97655879 0.10584643 29.3281216 0.09765625 31.6796875 C0.07557011 37.45321244 0.04207345 43.22658801 0 49 C-4.77958622 51.38979311 -10.65626015 50 -16 50 C-16 33.5 -16 17 -16 0 C-13.33743847 -1.33128076 -10.96127034 -1.41344012 -8 -1.6875 C-6.9275 -1.79449219 -5.855 -1.90148437 -4.75 -2.01171875 C-2 -2 -2 -2 0 0 Z " fill="#114561" transform="translate(185,222)"/>
<path d="M0 0 C2.8988012 1.38100192 5.53036528 2.94953713 8.1875 4.75 C9.363125 5.54277344 9.363125 5.54277344 10.5625 6.3515625 C11.366875 6.89554687 12.17125 7.43953125 13 8 C14.56170921 9.04285187 16.12418794 10.08455245 17.6875 11.125 C18.42355469 11.62 19.15960938 12.115 19.91796875 12.625 C21.21712711 13.48298075 22.53047292 14.32028554 23.86328125 15.125 C27.86710305 17.57124912 27.86710305 17.57124912 28.65625 20.1171875 C28.7696875 20.73851562 28.883125 21.35984375 29 22 C19.6629812 29.89287548 10.40856986 37.54227457 0 44 C-0.66 43.67 -1.32 43.34 -2 43 C-3.28702399 19.8890182 -3.28702399 19.8890182 -2.6875 9.125 C-2.65277588 8.42511963 -2.61805176 7.72523926 -2.58227539 7.00415039 C-2.25555062 2.25555062 -2.25555062 2.25555062 0 0 Z " fill="#1891D3" transform="translate(270,113)"/>
<path d="M0 0 C0.721875 0.309375 1.44375 0.61875 2.1875 0.9375 C4.80307309 1.92560539 7.25118982 2.5287754 10 3 C10 3.99 10 4.98 10 6 C11.65 6 13.3 6 15 6 C15 6.66 15 7.32 15 8 C16.1446875 8.433125 16.1446875 8.433125 17.3125 8.875 C20 10 20 10 23 12 C23.99 12.33 24.98 12.66 26 13 C26.268125 13.639375 26.53625 14.27875 26.8125 14.9375 C27.90199106 17.29175471 27.90199106 17.29175471 30.875 18.3125 C33.83977687 18.96475091 35.22315269 19.0680182 38 18 C38 18.7425 38 19.485 38 20.25 C39.20665714 23.56830714 39.98992519 23.80059811 43.0625 25.3125 C44.36728944 25.89266121 45.67773548 26.46085342 47 27 C47 27.99 47 28.98 47 30 C47.61875 30.268125 48.2375 30.53625 48.875 30.8125 C51 32 51 32 53 35 C55.05925139 35.72382467 55.05925139 35.72382467 57 36 C57.185625 34.329375 57.185625 34.329375 57.375 32.625 C58 29 58 29 60 27 C60.144375 25.96875 60.28875 24.9375 60.4375 23.875 C61.070887 19.51166737 62.35498194 16.07678388 64 12 C64.99 12 65.98 12 67 12 C64.56696874 20.87842985 61.29163506 29.41405225 58 38 C52.86572336 37.52630186 50.0826372 35.96759768 46 32.875 C44.77539044 31.96611274 43.54867599 31.06005737 42.3203125 30.15625 C41.64258789 29.65609375 40.96486328 29.1559375 40.26660156 28.640625 C35.86857083 25.45721629 31.36614815 22.42486822 26.875 19.375 C25.92512207 18.72797119 24.97524414 18.08094238 23.99658203 17.41430664 C18.11893518 13.41703682 12.21461032 9.46788648 6.2421875 5.61328125 C3.90578548 3.9322115 1.97477655 2.08853096 0 0 Z M44 27 C44.33 27.66 44.66 28.32 45 29 C45.33 28.34 45.66 27.68 46 27 C45.34 27 44.68 27 44 27 Z " fill="#2196D5" transform="translate(294,126)"/>
<path d="M0 0 C1.18851563 0.00902344 2.37703125 0.01804688 3.6015625 0.02734375 C4.51679688 0.03894531 5.43203125 0.05054688 6.375 0.0625 C7.72787731 11.15126221 7.72787731 11.15126221 7.375 14.0625 C3.75532984 16.47561344 2.48322455 16.17332246 -1.75 15.75 C-2.82507813 15.65074219 -3.90015625 15.55148438 -5.0078125 15.44921875 C-7.625 15.0625 -7.625 15.0625 -8.625 14.0625 C-8.69758946 11.87610547 -8.70873783 9.68749611 -8.6875 7.5 C-8.67847656 6.30246094 -8.66945312 5.10492188 -8.66015625 3.87109375 C-8.64855469 2.94425781 -8.63695312 2.01742187 -8.625 1.0625 C-5.74084117 -0.37957941 -3.20778472 -0.03144887 0 0 Z " fill="#0B354B" transform="translate(177.625,201.9375)"/>
<path d="M0 0 C2.0625 0.4375 2.0625 0.4375 4 1 C2.81443578 4.55669266 2.26591795 4.67419662 -0.9375 6.3125 C-4.39771651 8.13887819 -7.77904443 10.03340597 -11.125 12.0625 C-14.40130142 14.04235086 -17.6921978 15.98444378 -21.0234375 17.87109375 C-23.69301611 19.39581355 -26.34567095 20.94889705 -29 22.5 C-30.546875 23.39912109 -30.546875 23.39912109 -32.125 24.31640625 C-33.82111676 25.30964853 -35.51137822 26.31321916 -37.1875 27.33984375 C-40.52496908 29.36102653 -41.96561366 30 -46 30 C-46 29.34 -46 28.68 -46 28 C-44.35 27.67 -42.7 27.34 -41 27 C-41 26.34 -41 25.68 -41 25 C-40.21625 24.7525 -39.4325 24.505 -38.625 24.25 C-35.5988084 22.80895638 -35.19298128 22.02833711 -34 19 C-33.34 18.01 -32.68 17.02 -32 16 C-31.01 16.33 -30.02 16.66 -29 17 C-25.92334973 16.91778291 -25.92334973 16.91778291 -23 16 C-21.69934079 14.06616713 -21.69934079 14.06616713 -21 12 C-20.34 11.67 -19.68 11.34 -19 11 C-18.34 11.33 -17.68 11.66 -17 12 C-17 11.34 -17 10.68 -17 10 C-16.45730469 9.73445313 -15.91460937 9.46890625 -15.35546875 9.1953125 C-14.64003906 8.84210938 -13.92460937 8.48890625 -13.1875 8.125 C-12.12595703 7.60292969 -12.12595703 7.60292969 -11.04296875 7.0703125 C-8.78753582 5.9343514 -8.78753582 5.9343514 -6 4 C-6 3.01 -6 2.02 -6 1 C-4.7934375 1.0309375 -4.7934375 1.0309375 -3.5625 1.0625 C-1.06645115 1.29633621 -1.06645115 1.29633621 0 0 Z " fill="#164E69" transform="translate(311,72)"/>
<path d="M0 0 C-0.33 0.99 -0.66 1.98 -1 3 C-3.29296875 4.09765625 -3.29296875 4.09765625 -6.1875 5.0625 C-7.18265625 5.39894531 -8.1778125 5.73539062 -9.203125 6.08203125 C-10.12609375 6.38496094 -11.0490625 6.68789062 -12 7 C-13.134375 7.4125 -14.26875 7.825 -15.4375 8.25 C-18 9 -18 9 -22 9 C-22.33 9.66 -22.66 10.32 -23 11 C-25 11 -27 11 -29 11 C-29.33 11.99 -29.66 12.98 -30 14 C-30.969375 14.12375 -31.93875 14.2475 -32.9375 14.375 C-33.948125 14.58125 -34.95875 14.7875 -36 15 C-36.33 15.66 -36.66 16.32 -37 17 C-36.34 17.33 -35.68 17.66 -35 18 C-33.65724831 18.98731742 -32.32267727 19.98594743 -31 21 C-34.05065538 22.59504102 -35.48730885 23.12038901 -38.89453125 22.3203125 C-39.85746094 21.92585938 -40.82039062 21.53140625 -41.8125 21.125 C-42.78832031 20.73570313 -43.76414063 20.34640625 -44.76953125 19.9453125 C-45.50558594 19.63335937 -46.24164063 19.32140625 -47 19 C-46.67 17.02 -46.34 15.04 -46 13 C-45.07445312 12.91363281 -44.14890625 12.82726562 -43.1953125 12.73828125 C-37.8599074 11.97320935 -32.92240978 10.01452713 -27.875 8.1875 C-25.82609606 7.46061612 -23.77661922 6.73534501 -21.7265625 6.01171875 C-20.74333008 5.66415527 -19.76009766 5.3165918 -18.74707031 4.95849609 C-4.53591442 0 -4.53591442 0 0 0 Z " fill="#154560" transform="translate(242,73)"/>
<path d="M0 0 C0.66 0 1.32 0 2 0 C2.33 12.21 2.66 24.42 3 37 C8.16781089 31.83218911 12.44536492 27.01281976 16.7890625 21.2578125 C19.8761036 18.10532176 22.1578067 18.12964699 26.38671875 17.83203125 C27.14597656 17.82558594 27.90523438 17.81914062 28.6875 17.8125 C29.45449219 17.79832031 30.22148437 17.78414062 31.01171875 17.76953125 C33 18 33 18 35 20 C33.75625426 21.60902058 32.50473101 23.21203107 31.25 24.8125 C30.55390625 25.70582031 29.8578125 26.59914062 29.140625 27.51953125 C27.22174036 29.74305633 25.41900036 31.3600921 23 33 C24.875 28.25 24.875 28.25 26 26 C26.66 26 27.32 26 28 26 C28.66 24.35 29.32 22.7 30 21 C27.03 20.67 24.06 20.34 21 20 C21.33 22.31 21.66 24.62 22 27 C20.865625 27.28875 19.73125 27.5775 18.5625 27.875 C17.386875 28.24625 16.21125 28.6175 15 29 C14.67 29.66 14.34 30.32 14 31 C12.8553125 31.6496875 12.8553125 31.6496875 11.6875 32.3125 C8.13947602 34.54032901 5.87087322 37.25825357 4 41 C2.68 40.67 1.36 40.34 0 40 C-1.12646188 33.49155357 -1.12646188 33.49155357 -0.53344727 31.18652344 C0.19927789 28.18318866 0.11120575 25.3549116 0.09765625 22.265625 C0.09443359 20.97011719 0.09121094 19.67460937 0.08789062 18.33984375 C0.07953598 16.97656183 0.07107104 15.61328058 0.0625 14.25 C0.05748168 12.87109535 0.05291935 11.49218896 0.04882812 10.11328125 C0.03704093 6.74214341 0.02058635 3.37109372 0 0 Z " fill="#1B4861" transform="translate(258,203)"/>
<path d="M0 0 C0.66 0.33 1.32 0.66 2 1 C1.01 1.66 0.02 2.32 -1 3 C-1.72965366 5.56282742 -1.72965366 5.56282742 -2 8 C-4.31 7.67 -6.62 7.34 -9 7 C-10.16549382 9.24773809 -11.01102974 11.0565274 -11.5 13.5625 C-13.71252648 17.15785553 -16.61566573 17.37018191 -20.58984375 18.32421875 C-23.23149271 18.930824 -23.23149271 18.930824 -26 21 C-26.72382467 23.05925139 -26.72382467 23.05925139 -27 25 C-34 25 -34 25 -37 24 C-31.27127502 19.89485376 -25.45896587 15.9220189 -19.5625 12.0625 C-18.95970215 11.6610376 -18.3569043 11.2595752 -17.73583984 10.84594727 C-13.34784812 8 -13.34784812 8 -10 8 C-10 7.34 -10 6.68 -10 6 C-9.34 6 -8.68 6 -8 6 C-8 5.34 -8 4.68 -8 4 C-6.71349294 3.30289269 -5.42059335 2.61757124 -4.125 1.9375 C-3.40570313 1.55464844 -2.68640625 1.17179687 -1.9453125 0.77734375 C-0.98238281 0.39255859 -0.98238281 0.39255859 0 0 Z " fill="#2087BA" transform="translate(364,46)"/>
<path d="M0 0 C0.66 0 1.32 0 2 0 C3.72833077 8.08009866 4.39302902 15.93803203 4.625 24.1875 C4.66367187 25.33025391 4.70234375 26.47300781 4.7421875 27.65039062 C4.83534411 30.43344445 4.92115849 33.21651022 5 36 C2.525 36.495 2.525 36.495 0 37 C-3.91731142 28.94664403 -7.74022087 20.12939073 -7 11 C-6.33333333 12.33333333 -5.66666667 13.66666667 -5 15 C-4.525625 15.825 -4.05125 16.65 -3.5625 17.5 C-1.6708784 21.73723239 -0.68101472 25.97491954 0.3515625 30.48828125 C0.75320413 32.92250546 0.75320413 32.92250546 2 34 C2 28.72 2 23.44 2 18 C1.01 18 0.02 18 -1 18 C-0.125 11.25 -0.125 11.25 1 9 C0.91348369 7.45386986 0.75997364 5.91090613 0.5625 4.375 C0.40974609 3.14910156 0.40974609 3.14910156 0.25390625 1.8984375 C0.17011719 1.27195312 0.08632813 0.64546875 0 0 Z " fill="#1F536C" transform="translate(264,122)"/>
<path d="M0 0 C0 0.33 0 0.66 0 1 C-0.81791016 1.14695313 -0.81791016 1.14695313 -1.65234375 1.296875 C-5.6729199 2.09411745 -9.30259704 3.02530131 -13 4.8125 C-18.08395598 7.21974417 -23.38963131 8.67037327 -28.796875 10.16137695 C-32.19923895 11.11358375 -35.33263548 12.14333368 -38.58984375 13.546875 C-42.03187983 15.01358453 -45.28609374 15.89698937 -48.9375 16.6875 C-50.08089844 16.93886719 -51.22429687 17.19023438 -52.40234375 17.44921875 C-53.25957031 17.63097656 -54.11679687 17.81273438 -55 18 C-55 17.01 -55 16.02 -55 15 C-54.41562164 14.81429947 -53.83124329 14.62859894 -53.22915649 14.43727112 C-47.16190769 12.50890044 -41.09538996 10.5782433 -35.02929688 8.64624023 C-32.76353429 7.92494648 -30.49758424 7.20424134 -28.23144531 6.48413086 C-24.97932582 5.4505942 -21.72788037 4.41496149 -18.4765625 3.37890625 C-17.45881744 3.05596085 -16.44107239 2.73301544 -15.39248657 2.40028381 C-14.45166229 2.10004807 -13.51083801 1.79981232 -12.54150391 1.49047852 C-11.71099518 1.22622574 -10.88048645 0.96197296 -10.02481079 0.68971252 C-6.03082786 -0.6707603 -4.31463276 -0.84416728 0 0 Z " fill="#1E5068" transform="translate(350,40)"/>
<path d="M0 0 C0 0.66 0 1.32 0 2 C-0.84304688 2.39832031 -1.68609375 2.79664063 -2.5546875 3.20703125 C-4.19824219 4.00173828 -4.19824219 4.00173828 -5.875 4.8125 C-6.96554687 5.33457031 -8.05609375 5.85664062 -9.1796875 6.39453125 C-12.22221402 7.84724897 -12.22221402 7.84724897 -14 11 C-15.92578125 11.88671875 -15.92578125 11.88671875 -18.3125 12.6875 C-23.90930245 14.79234934 -28.69683577 17.77834038 -33.7421875 20.95703125 C-36.81876633 22.88634867 -39.91034141 24.75946529 -43.0625 26.5625 C-43.91972656 27.05878906 -44.77695312 27.55507812 -45.66015625 28.06640625 C-48.29937404 29.11944974 -49.39075358 29.00633753 -52 28 C-49.71814047 24.57721071 -49.64118156 24.84078192 -46 24 C-44.50952724 23.07048699 -43.05216916 22.08655647 -41.625 21.0625 C-38.11449998 18.64796096 -35.05417301 17.3238116 -31 16 C-28.44365025 14.54395613 -25.95171817 13.00898462 -23.46484375 11.4375 C-21 10 -21 10 -18.54296875 9.03515625 C-15.55583177 7.81919419 -13.06526763 6.21248374 -10.375 4.4375 C-3.64033264 0 -3.64033264 0 0 0 Z " fill="#205975" transform="translate(368,43)"/>
<path d="M0 0 C0.66 0.99 1.32 1.98 2 3 C2.99 3 3.98 3 5 3 C4.67 3.99 4.34 4.98 4 6 C3.34 6 2.68 6 2 6 C2 12.6 2 19.2 2 26 C3.32 26 4.64 26 6 26 C6.33 27.32 6.66 28.64 7 30 C7 28.68 7 27.36 7 26 C7.99 25.67 8.98 25.34 10 25 C10 25.66 10 26.32 10 27 C10.99 27.33 11.98 27.66 13 28 C7.555 31.96 7.555 31.96 2 36 C1.34 35.67 0.68 35.34 0 35 C-0.20010711 31.22972796 -0.38270332 27.45879083 -0.5625 23.6875 C-0.61857422 22.63498047 -0.67464844 21.58246094 -0.73242188 20.49804688 C-1.05236514 13.56594279 -0.82306262 6.89089653 0 0 Z " fill="#1C91D2" transform="translate(268,121)"/>
<path d="M0 0 C0 0.66 0 1.32 0 2 C-2.22457845 3.01144568 -4.45374291 4.00920265 -6.6875 5 C-7.62625977 5.42925781 -7.62625977 5.42925781 -8.58398438 5.8671875 C-12.19992767 7.45744528 -15.04190849 8.36326652 -19 8 C-19 8.66 -19 9.32 -19 10 C-19.54527344 10.10957031 -20.09054687 10.21914063 -20.65234375 10.33203125 C-24.75969814 11.19562884 -28.67721594 12.19129529 -32.625 13.625 C-36.61041253 15.01884375 -39.79986679 15.26809361 -44 15 C-41.62759257 12.62759257 -39.94793182 12.18911414 -36.7578125 11.1953125 C-35.69046875 10.85886719 -34.623125 10.52242187 -33.5234375 10.17578125 C-31.84121094 9.65564453 -31.84121094 9.65564453 -30.125 9.125 C-27.93987155 8.44084669 -25.75497496 7.75595239 -23.5703125 7.0703125 C-21.94851074 6.56226074 -21.94851074 6.56226074 -20.29394531 6.04394531 C-1.22357343 0 -1.22357343 0 0 0 Z " fill="#214D67" transform="translate(393,24)"/>
<path d="M0 0 C2.43816585 -0.0809723 4.87364384 -0.14046972 7.3125 -0.1875 C8.34793945 -0.22520508 8.34793945 -0.22520508 9.40429688 -0.26367188 C14.5239116 -0.33786919 14.5239116 -0.33786919 16.9375 1.375 C18.14887563 3.22769214 18.62542127 4.82744335 19 7 C17.741875 7.04125 16.48375 7.0825 15.1875 7.125 C14.47980469 7.14820313 13.77210937 7.17140625 13.04296875 7.1953125 C9.87379951 6.89233265 8.18569694 5.18569694 6 3 C6.61875 3.9075 7.2375 4.815 7.875 5.75 C9.44389611 8.14948817 10.80443821 10.40961612 12 13 C8.79841921 11.9328064 8.08958203 11.25314513 6 8.75 C5.505 8.16734375 5.01 7.5846875 4.5 6.984375 C2.81201666 4.75131371 1.4023071 2.42064916 0 0 Z " fill="#164762" transform="translate(69,246)"/>
<path d="M0 0 C-2.37672905 3.56509357 -3.16564475 3.56803906 -7.1875 4.5 C-10.49070841 5.32150105 -13.59414234 6.13755052 -16.6875 7.5625 C-21.74156851 9.75577501 -26.44188274 11 -32 11 C-32.33 11.66 -32.66 12.32 -33 13 C-33.66 12.67 -34.32 12.34 -35 12 C-35 11.34 -35 10.68 -35 10 C-30.8223395 8.56613387 -26.64143045 7.14230799 -22.45727539 5.72753906 C-21.03545058 5.24523537 -19.61453633 4.76023842 -18.19458008 4.27246094 C-16.1490055 3.57030224 -14.10031179 2.87801329 -12.05078125 2.1875 C-10.82012939 1.76855469 -9.58947754 1.34960938 -8.3215332 0.91796875 C-5.33761238 0.09330559 -3.06536592 -0.20350977 0 0 Z " fill="#1B4C65" transform="translate(294,57)"/>
<path d="M0 0 C-0.88966849 3.63955293 -1.37662737 5.53646651 -4.4375 7.8125 C-7 9 -7 9 -10 10 C-10.268125 10.66 -10.53625 11.32 -10.8125 12 C-12 14 -12 14 -14.9375 14.875 C-18 15 -18 15 -21 13 C-20.34 13 -19.68 13 -19 13 C-19 12.34 -19 11.68 -19 11 C-17.96875 10.4225 -16.9375 9.845 -15.875 9.25 C-13.4008717 7.84481557 -11.02759986 6.36784682 -8.6875 4.75 C-6 3 -6 3 -4 3 C-4 2.34 -4 1.68 -4 1 C-2 0 -2 0 0 0 Z " fill="#1D89C5" transform="translate(387,32)"/>
<path d="M0 0 C0.99 0 1.98 0 3 0 C0.56696874 8.87842985 -2.70836494 17.41405225 -6 26 C-10.34856528 25.50782714 -12.97319203 24.69413749 -16.375 21.9375 C-17.06335938 21.38964844 -17.75171875 20.84179688 -18.4609375 20.27734375 C-18.96882813 19.85582031 -19.47671875 19.43429688 -20 19 C-18 18 -18 18 -15.5 18.75 C-13 20 -13 20 -11 23 C-8.94074861 23.72382467 -8.94074861 23.72382467 -7 24 C-6.87625 22.88625 -6.7525 21.7725 -6.625 20.625 C-6 17 -6 17 -4 15 C-3.855625 13.96875 -3.71125 12.9375 -3.5625 11.875 C-2.929113 7.51166737 -1.64501806 4.07678388 0 0 Z " fill="#359CCB" transform="translate(358,138)"/>
<path d="M0 0 C0.33 0 0.66 0 1 0 C1 8.58 1 17.16 1 26 C5.29 26 9.58 26 14 26 C14 26.66 14 27.32 14 28 C9.05 28 4.1 28 -1 28 C-1.02682159 23.52079403 -1.04675177 19.04174649 -1.0625 14.5625 C-1.07087891 13.28310547 -1.07925781 12.00371094 -1.08789062 10.68554688 C-1.09111328 9.47060547 -1.09433594 8.25566406 -1.09765625 7.00390625 C-1.10289307 5.87799072 -1.10812988 4.7520752 -1.11352539 3.59204102 C-1 1 -1 1 0 0 Z " fill="#51636F" transform="translate(300,244)"/>
<path d="M0 0 C2 2 2 2 2.24050903 4.10073853 C2.23606781 4.96677704 2.23162659 5.83281555 2.22705078 6.72509766 C2.22682419 8.19639633 2.22682419 8.19639633 2.22659302 9.69741821 C2.21627045 10.75891083 2.20594788 11.82040344 2.1953125 12.9140625 C2.1924826 13.99883881 2.18965271 15.08361511 2.18673706 16.20126343 C2.17551578 19.67595313 2.15040762 23.15038782 2.125 26.625 C2.11497272 28.97655879 2.10584643 31.3281216 2.09765625 33.6796875 C2.07557011 39.45321244 2.04207345 45.22658801 2 51 C1.34 51 0.68 51 0 51 C0 34.83 0 18.66 0 2 C-3.96 2 -7.92 2 -12 2 C-12 1.67 -12 1.34 -12 1 C-10.04310341 0.77857745 -8.08438048 0.5732432 -6.125 0.375 C-4.48917969 0.20097656 -4.48917969 0.20097656 -2.8203125 0.0234375 C-1.88960937 0.01570312 -0.95890625 0.00796875 0 0 Z " fill="#000000" transform="translate(183,220)"/>
<path d="M0 0 C2.96846364 1.41035603 5.65489103 3.0329613 8.375 4.875 C9.54482422 5.66390625 9.54482422 5.66390625 10.73828125 6.46875 C11.48464844 6.9740625 12.23101562 7.479375 13 8 C14.18675578 8.79278186 15.37413218 9.58463661 16.5625 10.375 C17.366875 10.91125 18.17125 11.4475 19 12 C18.01 12.495 18.01 12.495 17 13 C13.37954568 11.45938114 10.64334876 9.90768363 8 7 C7.34 6.67 6.68 6.34 6 6 C6 6.99 6 7.98 6 9 C5.34 9 4.68 9 4 9 C4 8.34 4 7.68 4 7 C3.01 7.33 2.02 7.66 1 8 C1 7.34 1 6.68 1 6 C0.01 6 -0.98 6 -2 6 C-1.125 1.125 -1.125 1.125 0 0 Z " fill="#2988C3" transform="translate(270,113)"/>
<path d="M0 0 C0.721875 0.309375 1.44375 0.61875 2.1875 0.9375 C4.80307309 1.92560539 7.25118982 2.5287754 10 3 C10 3.99 10 4.98 10 6 C11.65 6 13.3 6 15 6 C15 6.66 15 7.32 15 8 C15.804375 8.2475 16.60875 8.495 17.4375 8.75 C18.283125 9.1625 19.12875 9.575 20 10 C20.33333333 11.33333333 20.66666667 12.66666667 21 14 C23.49034386 15.29660434 23.49034386 15.29660434 26 16 C25.67 16.66 25.34 17.32 25 18 C22.14451646 16.10614453 19.29086108 14.20955144 16.4375 12.3125 C15.63763672 11.78205078 14.83777344 11.25160156 14.01367188 10.70507812 C9.27871169 7.55488012 4.56144551 4.39812383 0 1 C0 0.67 0 0.34 0 0 Z " fill="#3B94C4" transform="translate(294,126)"/>
<path d="M0 0 C0.66 0 1.32 0 2 0 C2 9.9 2 19.8 2 30 C1.01 29.67 0.02 29.34 -1 29 C-0.67 19.43 -0.34 9.86 0 0 Z " fill="#1D4963" transform="translate(123,222)"/>
<path d="M0 0 C0.33 0.66 0.66 1.32 1 2 C0.21625 2.4125 -0.5675 2.825 -1.375 3.25 C-4.09431808 4.74934647 -4.09431808 4.74934647 -5.0625 7.125 C-5.371875 7.74375 -5.68125 8.3625 -6 9 C-8.0625 9.625 -8.0625 9.625 -10 10 C-10.33 10.66 -10.66 11.32 -11 12 C-12.65 12 -14.3 12 -16 12 C-16 12.66 -16 13.32 -16 14 C-16.78375 14.309375 -17.5675 14.61875 -18.375 14.9375 C-20.92330128 15.92875038 -20.92330128 15.92875038 -23 17 C-21.59448163 13.5634732 -20.15151205 12.14759445 -16.97265625 10.2734375 C-16.18052734 9.7990625 -15.38839844 9.3246875 -14.57226562 8.8359375 C-13.74404297 8.35382813 -12.91582031 7.87171875 -12.0625 7.375 C-10.42823607 6.40389712 -8.79411565 5.43255268 -7.16015625 4.4609375 C-6.43449463 4.03603027 -5.70883301 3.61112305 -4.96118164 3.17333984 C-3.27657266 2.16546847 -1.63338744 1.08892496 0 0 Z " fill="#2A88B7" transform="translate(325,71)"/>
<path d="M0 0 C-1.47559669 4.42679007 -3.90057368 4.91432696 -8 7 C-8.66 7 -9.32 7 -10 7 C-10 7.66 -10 8.32 -10 9 C-13.46153846 12 -13.46153846 12 -16 12 C-15.8125 9.1875 -15.8125 9.1875 -15 6 C-11.25983062 2.93986142 -4.94672876 0 0 0 Z " fill="#0A4B71" transform="translate(393,26)"/>
<path d="M0 0 C3.93673644 1.31224548 6.22719294 2.91910327 9 6 C7.48328036 10.55015893 3.83108947 12.50057264 0 15 C-0.65234375 13.171875 -0.65234375 13.171875 -1 11 C1.4375 8.25 1.4375 8.25 4 6 C3.34 5.67 2.68 5.34 2 5 C2 4.01 2 3.02 2 2 C1.01 1.67 0.02 1.34 -1 1 C-0.67 0.67 -0.34 0.34 0 0 Z " fill="#2B95CF" transform="translate(290,127)"/>
<path d="M0 0 C0.66 0.33 1.32 0.66 2 1 C-1.41217244 5.6164686 -3.33481793 7.46567986 -9 9 C-10.67334039 9.98879205 -12.34151823 10.98648336 -14 12 C-14.66 12 -15.32 12 -16 12 C-15.67 13.32 -15.34 14.64 -15 16 C-15.99 15.34 -16.98 14.68 -18 14 C-18 13.01 -18 12.02 -18 11 C-15.58618808 9.33438071 -13.23371504 7.87076889 -10.6875 6.4375 C-9.31617865 5.64492492 -7.94507694 4.85196965 -6.57421875 4.05859375 C-5.96151123 3.71111084 -5.34880371 3.36362793 -4.7175293 3.00561523 C-3.10849348 2.06352305 -1.55139653 1.03426435 0 0 Z " fill="#2C87B5" transform="translate(287,95)"/>
<path d="M0 0 C1.75128818 0.28382946 3.50100003 0.57739529 5.25 0.875 C6.71179688 1.11863281 6.71179688 1.11863281 8.203125 1.3671875 C10.77264117 1.94855848 12.72071056 2.70840265 15 4 C15 4.66 15 5.32 15 6 C15.66 6.33 16.32 6.66 17 7 C14.9160597 6.88556397 12.83283507 6.75804453 10.75 6.625 C9.58984375 6.55539063 8.4296875 6.48578125 7.234375 6.4140625 C4.29305666 6.03751692 2.50050989 5.5225877 0 4 C0 2.68 0 1.36 0 0 Z " fill="#10445E" transform="translate(227,99)"/>
<path d="M0 0 C-1.41417954 3.41760055 -2.76352307 5.17429506 -6 7 C-8.97308924 7.82671393 -11.96475555 8.44872697 -15 9 C-13.36587557 7.29159719 -12.13093906 6.06546953 -10 5 C-9.34444881 2.47266765 -9.34444881 2.47266765 -9 0 C-5.67465243 -1.10844919 -3.37817425 -0.84454356 0 0 Z " fill="#157FB8" transform="translate(402,23)"/>
<path d="M0 0 C4.29 0 8.58 0 13 0 C13 5.94 13 11.88 13 18 C12.67 18 12.34 18 12 18 C11.67 15.69 11.34 13.38 11 11 C10.34 11 9.68 11 9 11 C7.9673198 8.21176345 7.95490707 7.1322726 8.9375 4.25 C9.288125 3.5075 9.63875 2.765 10 2 C8.68 2.33 7.36 2.66 6 3 C6 2.34 6 1.68 6 1 C4.02 1 2.04 1 0 1 C0 0.67 0 0.34 0 0 Z " fill="#0A2533" transform="translate(146,221)"/>
<path d="M0 0 C2.475 0.495 2.475 0.495 5 1 C5 6.28 5 11.56 5 17 C4.34 17.33 3.68 17.66 3 18 C2.49095343 16.12743583 1.99317545 14.25180659 1.5 12.375 C1.08234375 10.80878906 1.08234375 10.80878906 0.65625 9.2109375 C0.00881404 6.04312582 -0.1161292 3.22258533 0 0 Z " fill="#154E68" transform="translate(260,102)"/>
<path d="M0 0 C0.66 0 1.32 0 2 0 C1.03884297 4.48539946 -0.39851574 8.04163793 -4 11 C-7.75750617 13.15856737 -9.60002084 14 -14 14 C-14 13.34 -14 12.68 -14 12 C-12.35 11.67 -10.7 11.34 -9 11 C-9 10.34 -9 9.68 -9 9 C-8.21625 8.7525 -7.4325 8.505 -6.625 8.25 C-3.5988084 6.80895638 -3.19298128 6.02833711 -2 3 C-1.34 2.01 -0.68 1.02 0 0 Z " fill="#0A405B" transform="translate(279,88)"/>
<path d="M0 0 C1.65 0 3.3 0 5 0 C4.70245971 7.12608999 3.28874656 12.6672508 0 19 C-0.66 18.67 -1.32 18.34 -2 18 C-1.61901399 13.65675949 -1.21519963 10.12760366 0.6875 6.1875 C1.120625 5.135625 1.55375 4.08375 2 3 C1.34 2.01 0.68 1.02 0 0 Z " fill="#2C96D0" transform="translate(399,21)"/>
<path d="M0 0 C4.29 0 8.58 0 13 0 C13.33 10.89 13.66 21.78 14 33 C12.68 32.67 11.36 32.34 10 32 C10 31.34 10 30.68 10 30 C10.66 30 11.32 30 12 30 C12 20.76 12 11.52 12 2 C8.04 1.67 4.08 1.34 0 1 C0 0.67 0 0.34 0 0 Z " fill="#435157" transform="translate(417,221)"/>
<path d="M0 0 C1.15699511 3.47098534 0.82954442 4.14733125 -0.43359375 7.44921875 C-0.75263672 8.29677734 -1.07167969 9.14433594 -1.40039062 10.01757812 C-1.91375977 11.33918945 -1.91375977 11.33918945 -2.4375 12.6875 C-2.77587891 13.58017578 -3.11425781 14.47285156 -3.46289062 15.39257812 C-4.30037307 17.59834174 -5.14632974 19.80046176 -6 22 C-8.29013653 18.5647952 -8.17842973 17.014669 -8 13 C-7.34 13 -6.68 13 -6 13 C-5.01 10.03 -4.02 7.06 -3 4 C-2.34 4 -1.68 4 -1 4 C-0.67 2.68 -0.34 1.36 0 0 Z " fill="#2E95C8" transform="translate(394,48)"/>
<path d="M0 0 C1.15699511 3.47098534 0.82954442 4.14733125 -0.43359375 7.44921875 C-0.75263672 8.29677734 -1.07167969 9.14433594 -1.40039062 10.01757812 C-1.91375977 11.33918945 -1.91375977 11.33918945 -2.4375 12.6875 C-2.77587891 13.58017578 -3.11425781 14.47285156 -3.46289062 15.39257812 C-4.30037307 17.59834174 -5.14632974 19.80046176 -6 22 C-8.18891794 18.71662309 -8.45290607 17.80441099 -8 14 C-6.5625 11.375 -6.5625 11.375 -5 9 C-4.67 8.01 -4.34 7.02 -4 6 C-3.34 5.67 -2.68 5.34 -2 5 C-1.27840576 3.35636866 -0.60648579 1.68949614 0 0 Z " fill="#3397CA" transform="translate(368,116)"/>
<path d="M0 0 C6 7.4 6 7.4 6 11 C0.72 11 -4.56 11 -10 11 C-10 10.34 -10 9.68 -10 9 C-8.7625 9.04125 -7.525 9.0825 -6.25 9.125 C-2.98362038 9.13658291 -0.7853053 8.8568702 2 7 C1.65213292 5.02463255 1.65213292 5.02463255 1 3 C0.34 2.67 -0.32 2.34 -1 2 C-0.67 1.34 -0.34 0.68 0 0 Z " fill="#4D5F6C" transform="translate(348,261)"/>
<path d="M0 0 C1.76462683 3.08809695 2 4.23312136 2 8 C-4.61439637 11.05279832 -10.72346608 11.8619894 -18 11 C-18.66 10.34 -19.32 9.68 -20 9 C-19.28714844 9.03480469 -18.57429688 9.06960938 -17.83984375 9.10546875 C-11.78546605 9.27658844 -7.18333374 9.3085109 -2 6 C-0.48026848 2.94818931 -0.48026848 2.94818931 0 0 Z " fill="#576671" transform="translate(503,262)"/>
<path d="M0 0 C0.99 0.33 1.98 0.66 3 1 C2.67 1.66 2.34 2.32 2 3 C2.33 3.66 2.66 4.32 3 5 C3 5.99 3 6.98 3 8 C0.68690295 7.88658363 -1.62550185 7.75896193 -3.9375 7.625 C-5.86916016 7.52058594 -5.86916016 7.52058594 -7.83984375 7.4140625 C-9.40412109 7.20910156 -9.40412109 7.20910156 -11 7 C-11.33 6.34 -11.66 5.68 -12 5 C-9.525 5.495 -9.525 5.495 -7 6 C-6.67 5.34 -6.34 4.68 -6 4 C-5.360625 3.855625 -4.72125 3.71125 -4.0625 3.5625 C-1.61789145 3.13834965 -1.61789145 3.13834965 0 0 Z " fill="#13405A" transform="translate(102,265)"/>
<path d="M0 0 C0.66 0.33 1.32 0.66 2 1 C0.51219674 5.01706879 -1.67271349 6.31247123 -5.375 8.3125 C-6.33148438 8.84488281 -7.28796875 9.37726563 -8.2734375 9.92578125 C-11.14727583 11.05802414 -12.19191053 11.13787512 -15 10 C-12.71205609 6.56808413 -12.65022687 6.84690515 -9 6 C-7.38292557 5.03350353 -5.79974043 4.00864412 -4.25 2.9375 C-3.45078125 2.38964844 -2.6515625 1.84179688 -1.828125 1.27734375 C-1.22484375 0.85582031 -0.6215625 0.43429688 0 0 Z " fill="#184F6D" transform="translate(331,61)"/>
<path d="M0 0 C0.66 0 1.32 0 2 0 C2 3.96 2 7.92 2 12 C5.63 12 9.26 12 13 12 C13 12.66 13 13.32 13 14 C11.02090602 14.02686553 9.04171029 14.04633375 7.0625 14.0625 C5.96035156 14.07410156 4.85820312 14.08570313 3.72265625 14.09765625 C1 14 1 14 0 13 C-0.07258946 10.81360547 -0.08373783 8.62499611 -0.0625 6.4375 C-0.05347656 5.23996094 -0.04445312 4.04242188 -0.03515625 2.80859375 C-0.02355469 1.88175781 -0.01195312 0.95492187 0 0 Z " fill="#20495C" transform="translate(169,203)"/>
<path d="M0 0 C0.66 0 1.32 0 2 0 C2.79725902 7.36040917 3.12886183 14.59760355 3 22 C2.67 20.68 2.34 19.36 2 18 C1.01 18 0.02 18 -1 18 C-0.125 11.25 -0.125 11.25 1 9 C0.91348369 7.45386986 0.75997364 5.91090613 0.5625 4.375 C0.46066406 3.55773437 0.35882813 2.74046875 0.25390625 1.8984375 C0.17011719 1.27195312 0.08632813 0.64546875 0 0 Z " fill="#084B6E" transform="translate(264,122)"/>
<path d="M0 0 C0.66 0.33 1.32 0.66 2 1 C1.01 1.66 0.02 2.32 -1 3 C-1.72965366 5.56282742 -1.72965366 5.56282742 -2 8 C-4.31 7.67 -6.62 7.34 -9 7 C-9.66 8.32 -10.32 9.64 -11 11 C-11.99 10.34 -12.98 9.68 -14 9 C-12.68 8.67 -11.36 8.34 -10 8 C-10 7.34 -10 6.68 -10 6 C-9.34 6 -8.68 6 -8 6 C-8 5.34 -8 4.68 -8 4 C-6.71349294 3.30289269 -5.42059335 2.61757124 -4.125 1.9375 C-3.40570313 1.55464844 -2.68640625 1.17179687 -1.9453125 0.77734375 C-1.30335938 0.52082031 -0.66140625 0.26429687 0 0 Z " fill="#217AB2" transform="translate(364,46)"/>
<path d="M0 0 C0.66 0 1.32 0 2 0 C1.29937517 4.56736441 -0.31270207 8.5699505 -2.0625 12.8125 C-2.34416016 13.50537109 -2.62582031 14.19824219 -2.91601562 14.91210938 C-3.60674973 16.60967624 -4.30283728 18.30506312 -5 20 C-6.11002992 16.66991025 -5.68516272 15.34016824 -5 12 C-5.33 11.34 -5.66 10.68 -6 10 C-5.34 10 -4.68 10 -4 10 C-4 9.34 -4 8.68 -4 8 C-3.34 8 -2.68 8 -2 8 C-2.061875 6.576875 -2.061875 6.576875 -2.125 5.125 C-2 2 -2 2 0 0 Z " fill="#3496C9" transform="translate(375,96)"/>
<path d="M0 0 C0 0.66 0 1.32 0 2 C-12.48519362 7.74031891 -12.48519362 7.74031891 -19 7 C-16.06584627 4.55714643 -13.5492968 3.37309256 -9.875 2.375 C-1.2688172 0 -1.2688172 0 0 0 Z " fill="#29566E" transform="translate(393,24)"/>
<path d="M0 0 C-0.66 0 -1.32 0 -2 0 C-2.268125 0.639375 -2.53625 1.27875 -2.8125 1.9375 C-4 4 -4 4 -7 5 C-8.38576923 6.62332967 -9.72641268 8.28724465 -11 10 C-11.66 8.35 -12.32 6.7 -13 5 C-12.195625 4.731875 -11.39125 4.46375 -10.5625 4.1875 C-9.716875 3.795625 -8.87125 3.40375 -8 3 C-7.67 2.01 -7.34 1.02 -7 0 C-4.05610218 -1.17755913 -3.10046087 -1.03348696 0 0 Z " fill="#1D8CCB" transform="translate(334,70)"/>
<path d="M0 0 C0.66 0 1.32 0 2 0 C2.33 8.25 2.66 16.5 3 25 C1.35 25.33 -0.3 25.66 -2 26 C-2.33 25.01 -2.66 24.02 -3 23 C-2.01 23 -1.02 23 0 23 C0 15.41 0 7.82 0 0 Z " fill="#246A8E" transform="translate(266,133)"/>
<path d="M0 0 C0.66 0.99 1.32 1.98 2 3 C2.99 3 3.98 3 5 3 C4.67 3.99 4.34 4.98 4 6 C3.34 6 2.68 6 2 6 C1.67 11.61 1.34 17.22 1 23 C0.67 23 0.34 23 0 23 C-0.8895125 15.1586052 -1.00220537 7.83262041 0 0 Z " fill="#1D81B7" transform="translate(268,121)"/>
<path d="M0 0 C2.0625 1.875 2.0625 1.875 4 5 C4.0571754 8.40453547 3.59785505 11.65331142 3 15 C0.39204913 12.39204913 0.38499825 10.54897393 -0.1875 6.9375 C-0.36667969 5.85339844 -0.54585937 4.76929687 -0.73046875 3.65234375 C-0.81941406 2.77707031 -0.90835938 1.90179688 -1 1 C-0.67 0.67 -0.34 0.34 0 0 Z " fill="#154860" transform="translate(254,122)"/>
<path d="M0 0 C0.33 0.99 0.66 1.98 1 3 C1.66 3 2.32 3 3 3 C3.99 4.485 3.99 4.485 5 6 C5.99 6.66 6.98 7.32 8 8 C8 8.99 8 9.98 8 11 C3.32894208 9.44298069 -0.08705685 6.91552627 -4 4 C-2.68 2.68 -1.36 1.36 0 0 Z " fill="#2593CB" transform="translate(283,113)"/>
<path d="M0 0 C0.66 0.33 1.32 0.66 2 1 C-0.03807293 8.1178153 -2.40344742 15.06707281 -5 22 C-5.33 22 -5.66 22 -6 22 C-6 19.36 -6 16.72 -6 14 C-5.34 13.67 -4.68 13.34 -4 13 C-3.21376109 10.83927773 -2.51798774 8.64509125 -1.875 6.4375 C-1.34519531 4.64119141 -1.34519531 4.64119141 -0.8046875 2.80859375 C-0.40636719 1.41833984 -0.40636719 1.41833984 0 0 Z " fill="#3796C3" transform="translate(383,74)"/>
<path d="M0 0 C0.33 0 0.66 0 1 0 C1 4.95 1 9.9 1 15 C2.44375 14.87625 3.8875 14.7525 5.375 14.625 C6.18710938 14.55539062 6.99921875 14.48578125 7.8359375 14.4140625 C10.20334191 14.17107412 10.20334191 14.17107412 12 12 C12.66 12.66 13.32 13.32 14 14 C13.67 14.99 13.34 15.98 13 17 C8.71 16.67 4.42 16.34 0 16 C-0.84387528 11.78062361 -1.01075849 9.32143942 -0.5625 5.1875 C-0.40974609 3.72376953 -0.40974609 3.72376953 -0.25390625 2.23046875 C-0.12822266 1.12638672 -0.12822266 1.12638672 0 0 Z " fill="#0F374D" transform="translate(246,256)"/>
<path d="M0 0 C1.32 0.33 2.64 0.66 4 1 C4.0825 1.94875 4.165 2.8975 4.25 3.875 C4.4975 4.90625 4.745 5.9375 5 7 C6.3153341 7.70151152 7.65117592 8.36525925 9 9 C10.75 12.125 10.75 12.125 12 15 C11.01 15.33 10.02 15.66 9 16 C7.49734474 13.5224077 5.99777081 11.04304235 4.5 8.5625 C4.07074219 7.85544922 3.64148438 7.14839844 3.19921875 6.41992188 C0 1.11328125 0 1.11328125 0 0 Z " fill="#556873" transform="translate(328,255)"/>
<path d="M0 0 C4.7312253 1.49407115 4.7312253 1.49407115 6.0625 4 C6.371875 4.66 6.68125 5.32 7 6 C8.32407669 6.68486725 9.65909241 7.34870203 11 8 C15.67391304 12.34782609 15.67391304 12.34782609 17 15 C12.5058745 13.50195817 8.51245066 11.18197815 5 8 C4.67 7.01 4.34 6.02 4 5 C1.99983534 3.79117904 1.99983534 3.79117904 0 3 C0 2.01 0 1.02 0 0 Z " fill="#2B91CB" transform="translate(315,137)"/>
<path d="M0 0 C0 0.66 0 1.32 0 2 C-0.84304688 2.39832031 -1.68609375 2.79664063 -2.5546875 3.20703125 C-4.19824219 4.00173828 -4.19824219 4.00173828 -5.875 4.8125 C-6.96554687 5.33457031 -8.05609375 5.85664062 -9.1796875 6.39453125 C-12.22221402 7.84724897 -12.22221402 7.84724897 -14 11 C-17.625 11.1875 -17.625 11.1875 -21 11 C-20.43023437 10.73058594 -19.86046875 10.46117187 -19.2734375 10.18359375 C-16.92100241 8.95887239 -14.80766543 7.56739038 -12.625 6.0625 C-3.6275978 0 -3.6275978 0 0 0 Z " fill="#1A5C7F" transform="translate(368,43)"/>
<path d="M0 0 C0.33 0.66 0.66 1.32 1 2 C1.99 2.33 2.98 2.66 4 3 C-1.445 6.96 -1.445 6.96 -7 11 C-7.66 10.34 -8.32 9.68 -9 9 C-8.01 8.67 -7.02 8.34 -6 8 C-5.67 7.01 -5.34 6.02 -5 5 C-4.01 5 -3.02 5 -2 5 C-2 3.68 -2 2.36 -2 1 C-1.34 0.67 -0.68 0.34 0 0 Z " fill="#3092C5" transform="translate(277,146)"/>
<path d="M0 0 C0.33 1.32 0.66 2.64 1 4 C0.34 4 -0.32 4 -1 4 C-1 4.99 -1 5.98 -1 7 C-2.1446875 6.938125 -2.1446875 6.938125 -3.3125 6.875 C-6.22718416 6.77919176 -6.22718416 6.77919176 -9 9 C-9.66 8.34 -10.32 7.68 -11 7 C-9.54261898 6.01941648 -8.08406325 5.04057868 -6.625 4.0625 C-5.81289063 3.51722656 -5.00078125 2.97195312 -4.1640625 2.41015625 C-2 1 -2 1 0 0 Z " fill="#248AC0" transform="translate(300,87)"/>
<path d="M0 0 C0.66 0.33 1.32 0.66 2 1 C0.75625426 2.60902058 -0.49526899 4.21203107 -1.75 5.8125 C-2.44609375 6.70582031 -3.1421875 7.59914062 -3.859375 8.51953125 C-5.77825964 10.74305633 -7.58099964 12.3600921 -10 14 C-8.125 9.25 -8.125 9.25 -7 7 C-6.34 7 -5.68 7 -5 7 C-4.731875 6.401875 -4.46375 5.80375 -4.1875 5.1875 C-3.01506533 3.02775192 -1.80630718 1.64209744 0 0 Z " fill="#244A5F" transform="translate(291,222)"/>
<path d="M0 0 C1.65322266 0.01740234 1.65322266 0.01740234 3.33984375 0.03515625 C4.99693359 0.04869141 4.99693359 0.04869141 6.6875 0.0625 C7.54214844 0.07410156 8.39679688 0.08570313 9.27734375 0.09765625 C9.27734375 1.08765625 9.27734375 2.07765625 9.27734375 3.09765625 C5.64734375 2.76765625 2.01734375 2.43765625 -1.72265625 2.09765625 C-1.72265625 3.74765625 -1.72265625 5.39765625 -1.72265625 7.09765625 C-2.38265625 7.09765625 -3.04265625 7.09765625 -3.72265625 7.09765625 C-3.76519981 5.09810879 -3.76346408 3.09723989 -3.72265625 1.09765625 C-2.72265625 0.09765625 -2.72265625 0.09765625 0 0 Z " fill="#3B474F" transform="translate(480.72265625,204.90234375)"/>
<path d="M0 0 C3 1 3 1 4.1875 2.75 C5.10819096 5.29960574 5.14948718 7.30923081 5 10 C4.01 10.33 3.02 10.66 2 11 C1.67 8.36 1.34 5.72 1 3 C0.01 3 -0.98 3 -2 3 C-2 2.34 -2 1.68 -2 1 C-1.34 0.67 -0.68 0.34 0 0 Z " fill="#135570" transform="translate(247,104)"/>
<path d="M0 0 C2 1 2 1 3.1875 3.3125 C4.06830357 6.22592721 3.81980747 7.1762187 3 10 C3.37907282 12.18703385 3.37907282 12.18703385 4 14 C2.35 14.66 0.7 15.32 -1 16 C-0.835 15.484375 -0.67 14.96875 -0.5 14.4375 C0.44759428 9.81797788 0.21798259 5.52393534 -1 1 C-0.67 0.67 -0.34 0.34 0 0 Z " fill="#53636E" transform="translate(394,238)"/>
<path d="M0 0 C-0.020625 0.94875 -0.04125 1.8975 -0.0625 2.875 C-0.22551826 5.90666283 -0.22551826 5.90666283 1 8 C-1 7 -3 6 -5 5 C-5.625 2.4375 -5.625 2.4375 -6 0 C-3.50907189 -1.24546405 -2.58919267 -0.7767578 0 0 Z " fill="#248EC7" transform="translate(277,107)"/>
<path d="M0 0 C0.99 0 1.98 0 3 0 C2.75185235 5.21110062 1.07924534 7.44249218 -2.52734375 10.8984375 C-4 12 -4 12 -6 12 C-5 9 -5 9 -3 7.125 C-0.72939356 4.71248065 -0.35991425 3.23922825 0 0 Z " fill="#20475C" transform="translate(236,258)"/>
<path d="M0 0 C-2.17424117 2.50037734 -3.73045798 3.43628586 -7 4 C-7 4.99 -7 5.98 -7 7 C-7.99 6.67 -8.98 6.34 -10 6 C-9.67 4.02 -9.34 2.04 -9 0 C-2.25 -1.125 -2.25 -1.125 0 0 Z " fill="#254E63" transform="translate(205,86)"/>
<path d="M0 0 C0.66 0.66 1.32 1.32 2 2 C-3.89895571 6.0449982 -10.07303328 5.27748976 -17 5 C-17 4.67 -17 4.34 -17 4 C-16.02417969 3.87882812 -15.04835938 3.75765625 -14.04296875 3.6328125 C-12.77066406 3.46523438 -11.49835938 3.29765625 -10.1875 3.125 C-8.92292969 2.96257812 -7.65835938 2.80015625 -6.35546875 2.6328125 C-2.88300683 2.20431547 -2.88300683 2.20431547 0 0 Z " fill="#1E4259" transform="translate(139,268)"/>
<path d="M0 0 C1.1446875 0.12375 1.1446875 0.12375 2.3125 0.25 C2.3125 0.91 2.3125 1.57 2.3125 2.25 C0.5625 3.7578125 0.5625 3.7578125 -1.6875 5.375 C-2.43 5.91382813 -3.1725 6.45265625 -3.9375 7.0078125 C-4.515 7.41773438 -5.0925 7.82765625 -5.6875 8.25 C-5.6875 4.25 -5.6875 4.25 -4.5 2 C-2.6875 0.25 -2.6875 0.25 0 0 Z " fill="#1B8DCA" transform="translate(357.6875,52.75)"/>
<path d="M0 0 C0.66 0 1.32 0 2 0 C2 0.66 2 1.32 2 2 C2.66 2 3.32 2 4 2 C4 5.63 4 9.26 4 13 C3.67 13 3.34 13 3 13 C2.67 10.69 2.34 8.38 2 6 C1.34 6 0.68 6 0 6 C-1.125 2.25 -1.125 2.25 0 0 Z " fill="#062B3A" transform="translate(155,226)"/>
<path d="M0 0 C0.66 0 1.32 0 2 0 C2.33 1.32 2.66 2.64 3 4 C-1.455 7.465 -1.455 7.465 -6 11 C-6.33 10.01 -6.66 9.02 -7 8 C-2.25 5 -2.25 5 0 5 C0 3.35 0 1.7 0 0 Z " fill="#4097BB" transform="translate(296,131)"/>
<path d="M0 0 C1.32 0.66 2.64 1.32 4 2 C3.01 4.64 2.02 7.28 1 10 C0.34 10 -0.32 10 -1 10 C-1.33 10.66 -1.66 11.32 -2 12 C-2.33 10.68 -2.66 9.36 -3 8 C-2.01 8 -1.02 8 0 8 C0 5.36 0 2.72 0 0 Z " fill="#28A0D4" transform="translate(395,38)"/>
<path d="M0 0 C-0.33 0.99 -0.66 1.98 -1 3 C-4.6037898 4.52160014 -7.05220686 5 -11 5 C-11 4.34 -11 3.68 -11 3 C-9.73160474 2.49384702 -8.46016898 1.99530901 -7.1875 1.5 C-6.12595703 1.08234375 -6.12595703 1.08234375 -5.04296875 0.65625 C-3 0 -3 0 0 0 Z " fill="#1D4C61" transform="translate(258,68)"/>
<path d="M0 0 C1.32 1.32 2.64 2.64 4 4 C3.67 4.99 3.34 5.98 3 7 C-3.93 6.505 -3.93 6.505 -11 6 C-11 5.67 -11 5.34 -11 5 C-7.04 5 -3.08 5 1 5 C0.67 3.35 0.34 1.7 0 0 Z " fill="#1D4255" transform="translate(290,266)"/>
<path d="M0 0 C0 0.66 0 1.32 0 2 C-0.66 2 -1.32 2 -2 2 C-2.20625 2.639375 -2.4125 3.27875 -2.625 3.9375 C-4 6 -4 6 -7.125 6.75 C-8.548125 6.87375 -8.548125 6.87375 -10 7 C-10 6.34 -10 5.68 -10 5 C-8.35 4.67 -6.7 4.34 -5 4 C-5 3.34 -5 2.68 -5 2 C-2 0 -2 0 0 0 Z " fill="#154B6D" transform="translate(275,95)"/>
<path d="M0 0 C0.66 0.33 1.32 0.66 2 1 C1.01 1.33 0.02 1.66 -1 2 C-1.268125 2.66 -1.53625 3.32 -1.8125 4 C-2.204375 4.66 -2.59625 5.32 -3 6 C-6.125 6.75 -6.125 6.75 -9 7 C-8.34 6.67 -7.68 6.34 -7 6 C-7 5.34 -7 4.68 -7 4 C-1.7265625 0.77734375 -1.7265625 0.77734375 0 0 Z " fill="#237BA9" transform="translate(375,39)"/>
<path d="M0 0 C0 0.66 0 1.32 0 2 C-3.14930893 3.04976964 -5.38814456 3.10131595 -8.6875 3.0625 C-9.68136719 3.05347656 -10.67523438 3.04445312 -11.69921875 3.03515625 C-12.83810547 3.01775391 -12.83810547 3.01775391 -14 3 C-14 2.34 -14 1.68 -14 1 C-9.32798795 -0.20568053 -4.78503708 -0.09382426 0 0 Z " fill="#173245" transform="translate(291,221)"/>
<path d="M0 0 C0.33 0.66 0.66 1.32 1 2 C1.99 2.33 2.98 2.66 4 3 C9 8.46511628 9 8.46511628 9 11 C5.77651004 9.92550335 4.95861919 9.13675431 2.8125 6.625 C2.28269531 6.01914063 1.75289063 5.41328125 1.20703125 4.7890625 C0 3 0 3 0 0 Z " fill="#254B5D" transform="translate(72,248)"/>
<path d="M0 0 C0.66 0.33 1.32 0.66 2 1 C0.625 2.5 0.625 2.5 -1 4 C-1.66 4 -2.32 4 -3 4 C-3 4.66 -3 5.32 -3 6 C-4.175625 6.4640625 -4.175625 6.4640625 -5.375 6.9375 C-7.92330128 7.92875038 -7.92330128 7.92875038 -10 9 C-8.60064115 5.59635112 -7.12995268 4.09193812 -4 2.1875 C-3.29875 1.74792969 -2.5975 1.30835937 -1.875 0.85546875 C-1.25625 0.57316406 -0.6375 0.29085937 0 0 Z " fill="#2F83AA" transform="translate(312,79)"/>
<path d="M0 0 C3.79588866 0.54226981 5.47211993 2.20127563 8 5 C6.02 5.99 6.02 5.99 4 7 C3.67 5.35 3.34 3.7 3 2 C2.01 1.67 1.02 1.34 0 1 C0 0.67 0 0.34 0 0 Z " fill="#576974" transform="translate(336,206)"/>
<path d="M0 0 C0.99 0.33 1.98 0.66 3 1 C2.67 1.66 2.34 2.32 2 3 C2.33 3.66 2.66 4.32 3 5 C3 5.99 3 6.98 3 8 C1.68 7.34 0.36 6.68 -1 6 C-1.042721 4.33388095 -1.04063832 2.66617115 -1 1 C-0.67 0.67 -0.34 0.34 0 0 Z " fill="#0D2638" transform="translate(102,265)"/>
<path d="M0 0 C1.11841676 3.35525029 0.91538821 3.97089854 -0.3125 7.125 C-0.57675781 7.82882813 -0.84101562 8.53265625 -1.11328125 9.2578125 C-2 11 -2 11 -4 12 C-3.67 9.69 -3.34 7.38 -3 5 C-2.34 5 -1.68 5 -1 5 C-0.67 3.35 -0.34 1.7 0 0 Z " fill="#194257" transform="translate(103,245)"/>
<path d="M0 0 C2.31 0 4.62 0 7 0 C7 2.31 7 4.62 7 7 C4.66666667 4.66666667 2.33333333 2.33333333 0 0 Z " fill="#0D4765" transform="translate(176,203)"/>
<path d="M0 0 C0.66 0 1.32 0 2 0 C2.33 3.63 2.66 7.26 3 11 C2.34 10.67 1.68 10.34 1 10 C0.5859375 7.71484375 0.5859375 7.71484375 0.375 4.9375 C0.30023438 4.01839844 0.22546875 3.09929687 0.1484375 2.15234375 C0.09945313 1.44207031 0.05046875 0.73179688 0 0 Z " fill="#1C5974" transform="translate(264,122)"/>
<path d="M0 0 C1.22589844 0.15275391 1.22589844 0.15275391 2.4765625 0.30859375 C3.41628906 0.43427734 3.41628906 0.43427734 4.375 0.5625 C4.375 1.2225 4.375 1.8825 4.375 2.5625 C2.725 3.2225 1.075 3.8825 -0.625 4.5625 C-1.285 3.9025 -1.945 3.2425 -2.625 2.5625 C-3.94247324 1.86501417 -5.27414193 1.19290043 -6.625 0.5625 C-4.10446405 -0.69776798 -2.7707902 -0.35624445 0 0 Z " fill="#50636F" transform="translate(381.625,259.4375)"/>
<path d="M0 0 C0.66 0 1.32 0 2 0 C3.23076923 5.41538462 3.23076923 5.41538462 2.0625 8.375 C1.711875 8.91125 1.36125 9.4475 1 10 C0.01 9.67 -0.98 9.34 -2 9 C-1.34 9 -0.68 9 0 9 C0 6.03 0 3.06 0 0 Z " fill="#4F5F6B" transform="translate(477,212)"/>
<path d="M0 0 C0.33 0.66 0.66 1.32 1 2 C0.34 2 -0.32 2 -1 2 C-1.66 3.65 -2.32 5.3 -3 7 C-4.32 6.34 -5.64 5.68 -7 5 C-2.25 1.125 -2.25 1.125 0 0 Z " fill="#1D465D" transform="translate(57,207)"/>
<path d="M0 0 C-5.875 5 -5.875 5 -7 5 C-7 3.35 -7 1.7 -7 0 C-3.98968256 -0.93423645 -3.13349732 -1.04449911 0 0 Z " fill="#227091" transform="translate(400,23)"/>
<path d="M0 0 C1.36125 0.37125 1.36125 0.37125 2.75 0.75 C2.151875 1.03875 1.55375 1.3275 0.9375 1.625 C-1.44327792 2.79742026 -1.44327792 2.79742026 -4.25 4.75 C-5.24 4.42 -6.23 4.09 -7.25 3.75 C-4.05 -0.31153846 -4.05 -0.31153846 0 0 Z " fill="#1B4454" transform="translate(229.25,255.25)"/>
<path d="M0 0 C1.37562854 1.28965176 2.70766393 2.62689293 4 4 C4 4.66 4 5.32 4 6 C3.34 6 2.68 6 2 6 C1.67 6.66 1.34 7.32 1 8 C0 7 0 7 -0.0625 3.4375 C-0.041875 2.303125 -0.02125 1.16875 0 0 Z " fill="#576873" transform="translate(553,229)"/>
<path d="M0 0 C0.66 0.33 1.32 0.66 2 1 C1.67 1.99 1.34 2.98 1 4 C1.66 4.33 2.32 4.66 3 5 C1.35 5.33 -0.3 5.66 -2 6 C-2.33 4.68 -2.66 3.36 -3 2 C-2.01 1.34 -1.02 0.68 0 0 Z " fill="#1D9AD3" transform="translate(279,110)"/>
<path d="M0 0 C-0.66 1.98 -1.32 3.96 -2 6 C-2.99 5.67 -3.98 5.34 -5 5 C-5.33 4.34 -5.66 3.68 -6 3 C-5.34 3 -4.68 3 -4 3 C-4 2.34 -4 1.68 -4 1 C-2 0 -2 0 0 0 Z " fill="#1B81B9" transform="translate(387,32)"/>
<path d="M0 0 C1.65 0 3.3 0 5 0 C4.67 3.3 4.34 6.6 4 10 C3.67 10 3.34 10 3 10 C2.8046875 7.98177083 2.609375 5.96354167 2.4140625 3.9453125 C2.13625251 1.77331755 2.13625251 1.77331755 0 0 Z " fill="#4791B4" transform="translate(399,21)"/>
<path d="M0 0 C2.97 0.33 5.94 0.66 9 1 C7.68 1.99 6.36 2.98 5 4 C1.125 2.25 1.125 2.25 0 0 Z " fill="#164F6C" transform="translate(202,92)"/>
<path d="M0 0 C1.13643966 3.40931897 0.86747764 4.00335456 -0.4375 7.1875 C-0.86869141 8.26064453 -0.86869141 8.26064453 -1.30859375 9.35546875 C-1.53675781 9.89816406 -1.76492188 10.44085938 -2 11 C-2.33 11 -2.66 11 -3 11 C-3 8.69 -3 6.38 -3 4 C-2.34 4 -1.68 4 -1 4 C-0.67 2.68 -0.34 1.36 0 0 Z " fill="#3594BC" transform="translate(394,48)"/>
<path d="M0 0 C1.8125 0.1875 1.8125 0.1875 4 1 C5.75 3.5625 5.75 3.5625 7 6 C3.63279613 4.60667426 2.0140476 3.0210714 0 0 Z " fill="#1F4762" transform="translate(46,260)"/>
<path d="M0 0 C2.97 0 5.94 0 9 0 C9 0.99 9 1.98 9 3 C8.01 3.33 7.02 3.66 6 4 C5.67 3.01 5.34 2.02 5 1 C3.35 1 1.7 1 0 1 C0 0.67 0 0.34 0 0 Z " fill="#2C353A" transform="translate(492,221)"/>
<path d="M0 0 C1.13643966 3.40931897 0.86747764 4.00335456 -0.4375 7.1875 C-0.86869141 8.26064453 -0.86869141 8.26064453 -1.30859375 9.35546875 C-1.53675781 9.89816406 -1.76492188 10.44085938 -2 11 C-2.33 11 -2.66 11 -3 11 C-3.36923077 4.6 -3.36923077 4.6 -1.5 1.5625 C-1.005 1.046875 -0.51 0.53125 0 0 Z " fill="#3A97C0" transform="translate(355,151)"/>
<path d="M0 0 C2.475 0.99 2.475 0.99 5 2 C5 3.32 5 4.64 5 6 C2.525 5.01 2.525 5.01 0 4 C0 2.68 0 1.36 0 0 Z " fill="#3496C8" transform="translate(286,118)"/>
<path d="M0 0 C1.32 0.66 2.64 1.32 4 2 C3.01 2.33 2.02 2.66 1 3 C1 3.66 1 4.32 1 5 C0.01 5 -0.98 5 -2 5 C-1.125 1.125 -1.125 1.125 0 0 Z " fill="#2C76B0" transform="translate(270,113)"/>
<path d="M0 0 C2.475 0.495 2.475 0.495 5 1 C5.33 2.32 5.66 3.64 6 5 C3.03 4.505 3.03 4.505 0 4 C0 2.68 0 1.36 0 0 Z " fill="#0F3C52" transform="translate(214,95)"/>
<path d="M0 0 C0.33 0 0.66 0 1 0 C1.125 5.75 1.125 5.75 0 8 C-0.66 8 -1.32 8 -2 8 C-2 6.02 -2 4.04 -2 2 C-1.34 2 -0.68 2 0 2 C0 1.34 0 0.68 0 0 Z " fill="#25A6D6" transform="translate(386,67)"/>
<path d="M0 0 C-1.125 1.5625 -1.125 1.5625 -3 3 C-6.1875 2.6875 -6.1875 2.6875 -9 2 C-3.42857143 -1.71428571 -3.42857143 -1.71428571 0 0 Z " fill="#1F4557" transform="translate(316,50)"/>
<path d="M0 0 C-2.17384564 2.17384564 -4.31270474 3.52198761 -7 5 C-7.66 5 -8.32 5 -9 5 C-9 4.01 -9 3.02 -9 2 C-5.86501708 0.14223235 -3.62528568 -0.20140476 0 0 Z " fill="#155778" transform="translate(377,38)"/>
<path d="M0 0 C1.125 1.75 1.125 1.75 2 4 C1.125 6.25 1.125 6.25 0 8 C-0.66 7.34 -1.32 6.68 -2 6 C-2 2 -2 2 0 0 Z " fill="#154C67" transform="translate(204,238)"/>
<path d="M0 0 C0.66 0 1.32 0 2 0 C2.33 2.64 2.66 5.28 3 8 C2.34 8 1.68 8 1 8 C0 1.125 0 1.125 0 0 Z " fill="#184A67" transform="translate(50,233)"/>
<path d="M0 0 C1.32 0 2.64 0 4 0 C4 1.32 4 2.64 4 4 C2.02 3.34 0.04 2.68 -2 2 C-1.34 1.34 -0.68 0.68 0 0 Z " fill="#113851" transform="translate(209,94)"/>
<path d="M0 0 C0.66 0.33 1.32 0.66 2 1 C-0.97 3.475 -0.97 3.475 -4 6 C-4.66 5.34 -5.32 4.68 -6 4 C-4.02 2.68 -2.04 1.36 0 0 Z " fill="#2B89B5" transform="translate(295,90)"/>
<path d="M0 0 C0.66 0.33 1.32 0.66 2 1 C0.25 3.0625 0.25 3.0625 -2 5 C-4.25 4.75 -4.25 4.75 -6 4 C-4.02 2.68 -2.04 1.36 0 0 Z " fill="#2779A7" transform="translate(339,62)"/>
<path d="" fill="#FFFFFF" transform="translate(0,0)"/>
<path d="" fill="#FFFFFF" transform="translate(0,0)"/>
<path d="" fill="#FFFFFF" transform="translate(0,0)"/>
<path d="" fill="#FFFFFF" transform="translate(0,0)"/>
<path d="" fill="#FFFFFF" transform="translate(0,0)"/>
<path d="" fill="#FFFFFF" transform="translate(0,0)"/>
<path d="" fill="#FFFFFF" transform="translate(0,0)"/>
<path d="" fill="#FFFFFF" transform="translate(0,0)"/>
<path d="" fill="#FFFFFF" transform="translate(0,0)"/>
<path d="" fill="#FFFFFF" transform="translate(0,0)"/>
<path d="" fill="#FFFFFF" transform="translate(0,0)"/>
<path d="" fill="#FFFFFF" transform="translate(0,0)"/>
<path d="" fill="#FFFFFF" transform="translate(0,0)"/>
<path d="" fill="#FFFFFF" transform="translate(0,0)"/>
<path d="" fill="#FFFFFF" transform="translate(0,0)"/>
<path d="" fill="#FFFFFF" transform="translate(0,0)"/>
<path d="" fill="#000000" transform="translate(0,0)"/>
<path d="" fill="#FFFFFF" transform="translate(0,0)"/>
<path d="" fill="#000000" transform="translate(0,0)"/>
<path d="" fill="#000000" transform="translate(0,0)"/>
<path d="" fill="#FFFFFF" transform="translate(0,0)"/>
<path d="" fill="#FFFFFF" transform="translate(0,0)"/>
<path d="" fill="#000000" transform="translate(0,0)"/>
<path d="" fill="#FFFFFF" transform="translate(0,0)"/>
<path d="" fill="#000000" transform="translate(0,0)"/>
<path d="" fill="#FFFFFF" transform="translate(0,0)"/>
<path d="" fill="#FFFFFF" transform="translate(0,0)"/>
<path d="" fill="#FFFFFF" transform="translate(0,0)"/>
<path d="" fill="#FFFFFF" transform="translate(0,0)"/>
<path d="" fill="#FFFFFF" transform="translate(0,0)"/>
<path d="" fill="#FFFFFF" transform="translate(0,0)"/>
<path d="" fill="#FFFFFF" transform="translate(0,0)"/>
<path d="" fill="#FFFFFF" transform="translate(0,0)"/>
<path d="" fill="#FFFFFF" transform="translate(0,0)"/>
<path d="" fill="#FFFFFF" transform="translate(0,0)"/>
<path d="" fill="#FFFFFF" transform="translate(0,0)"/>
<path d="" fill="#FFFFFF" transform="translate(0,0)"/>
<path d="" fill="#FFFFFF" transform="translate(0,0)"/>
<path d="" fill="#FFFFFF" transform="translate(0,0)"/>
<path d="" fill="#FFFFFF" transform="translate(0,0)"/>
<path d="" fill="#FFFFFF" transform="translate(0,0)"/>
<path d="" fill="#FFFFFF" transform="translate(0,0)"/>
<path d="" fill="#FFFFFF" transform="translate(0,0)"/>
<path d="" fill="#FFFFFF" transform="translate(0,0)"/>
<path d="" fill="#FFFFFF" transform="translate(0,0)"/>
<path d="" fill="#FFFFFF" transform="translate(0,0)"/>
<path d="" fill="#FFFFFF" transform="translate(0,0)"/>
<path d="" fill="#FFFFFF" transform="translate(0,0)"/>
<path d="" fill="#FFFFFF" transform="translate(0,0)"/>
<path d="" fill="#FFFFFF" transform="translate(0,0)"/>
<path d="" fill="#FFFFFF" transform="translate(0,0)"/>
<path d="" fill="#FFFFFF" transform="translate(0,0)"/>
<path d="" fill="#FFFFFF" transform="translate(0,0)"/>
<path d="" fill="#FFFFFF" transform="translate(0,0)"/>
<path d="" fill="#FFFFFF" transform="translate(0,0)"/>
<path d="" fill="#FFFFFF" transform="translate(0,0)"/>
<path d="" fill="#FFFFFF" transform="translate(0,0)"/>
<path d="" fill="#FFFFFF" transform="translate(0,0)"/>
<path d="" fill="#FFFFFF" transform="translate(0,0)"/>
<path d="" fill="#FFFFFF" transform="translate(0,0)"/>
<path d="" fill="#FFFFFF" transform="translate(0,0)"/>
<path d="" fill="#FFFFFF" transform="translate(0,0)"/>
<path d="" fill="#FFFFFF" transform="translate(0,0)"/>
<path d="" fill="#FFFFFF" transform="translate(0,0)"/>
<path d="" fill="#FFFFFF" transform="translate(0,0)"/>
<path d="" fill="#FFFFFF" transform="translate(0,0)"/>
<path d="" fill="#FFFFFF" transform="translate(0,0)"/>
<path d="" fill="#FFFFFF" transform="translate(0,0)"/>
<path d="" fill="#FFFFFF" transform="translate(0,0)"/>
<path d="" fill="#FFFFFF" transform="translate(0,0)"/>
<path d="" fill="#FFFFFF" transform="translate(0,0)"/>
<path d="" fill="#FFFFFF" transform="translate(0,0)"/>
<path d="" fill="#FFFFFF" transform="translate(0,0)"/>
</svg>
